# Blender 5.2.2 LTS
# www.blender.org
mtllib Light.mtl
o Sphere
v 0.000000 0.128517 0.000000
v 0.000000 0.106858 -0.071400
v 0.000000 0.071400 -0.106858
v 0.000000 0.025072 -0.126047
v 0.000000 0.000000 -0.128517
v 0.000000 -0.025072 -0.126047
v 0.000000 -0.071400 -0.106858
v 0.000000 -0.128517 0.000000
v 0.004891 0.126047 -0.024591
v 0.009595 0.118734 -0.048236
v 0.013929 0.106858 -0.070028
v 0.017729 0.090875 -0.089129
v 0.020847 0.071400 -0.104805
v 0.023164 0.049181 -0.116453
v 0.024591 0.025072 -0.123625
v 0.025072 0.000000 -0.126047
v 0.024591 -0.025072 -0.123625
v 0.023164 -0.049181 -0.116453
v 0.020847 -0.071400 -0.104805
v 0.017729 -0.090875 -0.089129
v 0.013929 -0.106858 -0.070028
v 0.009595 -0.118734 -0.048236
v 0.004891 -0.126047 -0.024591
v 0.009595 0.126047 -0.023164
v 0.018821 0.118734 -0.045438
v 0.027324 0.106858 -0.065965
v 0.034776 0.090875 -0.083958
v 0.040893 0.071400 -0.098724
v 0.045438 0.049181 -0.109696
v 0.048236 0.025072 -0.116453
v 0.049181 0.000000 -0.118734
v 0.048236 -0.025072 -0.116453
v 0.045438 -0.049181 -0.109696
v 0.040893 -0.071400 -0.098724
v 0.034776 -0.090875 -0.083958
v 0.027324 -0.106858 -0.065965
v 0.018821 -0.118734 -0.045438
v 0.009595 -0.126047 -0.023164
v 0.013929 0.126047 -0.020847
v 0.027324 0.118734 -0.040893
v 0.039668 0.106858 -0.059367
v 0.050488 0.090875 -0.075560
v 0.059367 0.071400 -0.088849
v 0.065965 0.049181 -0.098724
v 0.070028 0.025072 -0.104805
v 0.071400 0.000000 -0.106858
v 0.070028 -0.025072 -0.104805
v 0.065965 -0.049181 -0.098724
v 0.059367 -0.071400 -0.088849
v 0.050488 -0.090875 -0.075560
v 0.039668 -0.106858 -0.059367
v 0.027324 -0.118734 -0.040893
v 0.013929 -0.126047 -0.020847
v 0.017729 0.126047 -0.017729
v 0.034776 0.118734 -0.034776
v 0.050488 0.106858 -0.050488
v 0.064258 0.090875 -0.064258
v 0.075560 0.071400 -0.075560
v 0.083958 0.049181 -0.083958
v 0.089129 0.025072 -0.089129
v 0.090875 0.000000 -0.090875
v 0.089129 -0.025072 -0.089129
v 0.083958 -0.049181 -0.083958
v 0.075560 -0.071400 -0.075560
v 0.064258 -0.090875 -0.064258
v 0.050488 -0.106858 -0.050488
v 0.034776 -0.118734 -0.034776
v 0.017729 -0.126047 -0.017729
v 0.020847 0.126047 -0.013929
v 0.040893 0.118734 -0.027324
v 0.059367 0.106858 -0.039668
v 0.075560 0.090875 -0.050488
v 0.088849 0.071400 -0.059367
v 0.098724 0.049181 -0.065965
v 0.104805 0.025072 -0.070028
v 0.106858 0.000000 -0.071400
v 0.104805 -0.025072 -0.070028
v 0.098724 -0.049181 -0.065965
v 0.088849 -0.071400 -0.059367
v 0.075560 -0.090875 -0.050488
v 0.059367 -0.106858 -0.039668
v 0.040893 -0.118734 -0.027324
v 0.020847 -0.126047 -0.013929
v 0.023164 0.126047 -0.009595
v 0.045438 0.118734 -0.018821
v 0.065965 0.106858 -0.027324
v 0.083958 0.090875 -0.034776
v 0.098724 0.071400 -0.040893
v 0.109696 0.049181 -0.045438
v 0.116453 0.025072 -0.048236
v 0.118734 0.000000 -0.049181
v 0.116453 -0.025072 -0.048236
v 0.109696 -0.049181 -0.045438
v 0.098724 -0.071400 -0.040893
v 0.083958 -0.090875 -0.034776
v 0.065965 -0.106858 -0.027324
v 0.045438 -0.118734 -0.018821
v 0.023164 -0.126047 -0.009595
v 0.024591 0.126047 -0.004891
v 0.048236 0.118734 -0.009595
v 0.070028 0.106858 -0.013929
v 0.089129 0.090875 -0.017729
v 0.104805 0.071400 -0.020847
v 0.116453 0.049181 -0.023164
v 0.123625 0.025072 -0.024591
v 0.126047 0.000000 -0.025072
v 0.123625 -0.025072 -0.024591
v 0.116453 -0.049181 -0.023164
v 0.104805 -0.071400 -0.020847
v 0.089129 -0.090875 -0.017729
v 0.070028 -0.106858 -0.013929
v 0.048236 -0.118734 -0.009595
v 0.024591 -0.126047 -0.004891
v 0.025072 0.126047 0.000000
v 0.049181 0.118734 0.000000
v 0.071400 0.106858 0.000000
v 0.090875 0.090875 -0.000000
v 0.106858 0.071400 0.000000
v 0.118734 0.049181 -0.000000
v 0.126047 0.025072 0.000000
v 0.128517 0.000000 0.000000
v 0.126047 -0.025072 0.000000
v 0.118734 -0.049181 -0.000000
v 0.106858 -0.071400 0.000000
v 0.090875 -0.090875 -0.000000
v 0.071400 -0.106858 0.000000
v 0.049181 -0.118734 0.000000
v 0.025072 -0.126047 0.000000
v 0.024591 0.126047 0.004891
v 0.048236 0.118734 0.009595
v 0.070028 0.106858 0.013929
v 0.089129 0.090875 0.017729
v 0.104805 0.071400 0.020847
v 0.116453 0.049181 0.023164
v 0.123625 0.025072 0.024591
v 0.126047 0.000000 0.025072
v 0.123625 -0.025072 0.024591
v 0.116453 -0.049181 0.023164
v 0.104805 -0.071400 0.020847
v 0.089129 -0.090875 0.017729
v 0.070028 -0.106858 0.013929
v 0.048236 -0.118734 0.009595
v 0.024591 -0.126047 0.004891
v 0.023164 0.126047 0.009595
v 0.045438 0.118734 0.018821
v 0.065965 0.106858 0.027324
v 0.083958 0.090875 0.034776
v 0.098724 0.071400 0.040893
v 0.109696 0.049181 0.045438
v 0.116453 0.025072 0.048236
v 0.118734 0.000000 0.049181
v 0.116453 -0.025072 0.048236
v 0.109696 -0.049181 0.045438
v 0.098724 -0.071400 0.040893
v 0.083958 -0.090875 0.034776
v 0.065965 -0.106858 0.027324
v 0.045438 -0.118734 0.018821
v 0.023164 -0.126047 0.009595
v 0.020847 0.126047 0.013929
v 0.040893 0.118734 0.027324
v 0.059367 0.106858 0.039668
v 0.075560 0.090875 0.050488
v 0.088849 0.071400 0.059367
v 0.098724 0.049181 0.065965
v 0.104805 0.025072 0.070028
v 0.106858 0.000000 0.071400
v 0.104805 -0.025072 0.070028
v 0.098724 -0.049181 0.065965
v 0.088849 -0.071400 0.059367
v 0.075560 -0.090875 0.050488
v 0.059367 -0.106858 0.039668
v 0.040893 -0.118734 0.027324
v 0.020847 -0.126047 0.013929
v 0.017729 0.126047 0.017729
v 0.034776 0.118734 0.034776
v 0.050487 0.106858 0.050488
v 0.064258 0.090875 0.064258
v 0.075560 0.071400 0.075560
v 0.083958 0.049181 0.083958
v 0.089129 0.025072 0.089129
v 0.090875 0.000000 0.090875
v 0.089129 -0.025072 0.089129
v 0.083958 -0.049181 0.083958
v 0.075560 -0.071400 0.075560
v 0.064258 -0.090875 0.064258
v 0.050487 -0.106858 0.050488
v 0.034776 -0.118734 0.034776
v 0.017729 -0.126047 0.017729
v 0.013929 0.126047 0.020847
v 0.027324 0.118734 0.040893
v 0.039668 0.106858 0.059367
v 0.050488 0.090875 0.075560
v 0.059367 0.071400 0.088849
v 0.065965 0.049181 0.098724
v 0.070028 0.025072 0.104805
v 0.071400 0.000000 0.106858
v 0.070028 -0.025072 0.104805
v 0.065965 -0.049181 0.098724
v 0.059367 -0.071400 0.088849
v 0.050488 -0.090875 0.075560
v 0.039668 -0.106858 0.059367
v 0.027324 -0.118734 0.040893
v 0.013929 -0.126047 0.020847
v 0.009595 0.126047 0.023164
v 0.018821 0.118734 0.045438
v 0.027324 0.106858 0.065965
v 0.034776 0.090875 0.083958
v 0.040893 0.071400 0.098724
v 0.045438 0.049181 0.109696
v 0.048236 0.025072 0.116453
v 0.049181 0.000000 0.118734
v 0.048236 -0.025072 0.116453
v 0.045438 -0.049181 0.109696
v 0.040893 -0.071400 0.098724
v 0.034776 -0.090875 0.083958
v 0.027324 -0.106858 0.065965
v 0.018821 -0.118734 0.045438
v 0.009595 -0.126047 0.023164
v 0.004891 0.126047 0.024591
v 0.009595 0.118734 0.048236
v 0.013929 0.106858 0.070028
v 0.017729 0.090875 0.089129
v 0.020847 0.071400 0.104805
v 0.023164 0.049181 0.116453
v 0.024591 0.025072 0.123625
v 0.025072 0.000000 0.126047
v 0.024591 -0.025072 0.123625
v 0.023164 -0.049181 0.116453
v 0.020847 -0.071400 0.104805
v 0.017729 -0.090875 0.089129
v 0.013929 -0.106858 0.070028
v 0.009595 -0.118734 0.048236
v 0.004891 -0.126047 0.024591
v -0.000000 0.126047 0.025072
v -0.000000 0.118734 0.049181
v -0.000000 0.106858 0.071400
v -0.000000 0.090875 0.090875
v -0.000000 0.071400 0.106858
v 0.000000 0.049181 0.118734
v -0.000000 0.025072 0.126047
v -0.000000 0.000000 0.128517
v -0.000000 -0.025072 0.126047
v 0.000000 -0.049181 0.118734
v -0.000000 -0.071400 0.106858
v -0.000000 -0.090875 0.090875
v -0.000000 -0.106858 0.071400
v -0.000000 -0.118734 0.049181
v -0.000000 -0.126047 0.025072
v -0.004891 0.126047 0.024591
v -0.009595 0.118734 0.048236
v -0.013929 0.106858 0.070028
v -0.017729 0.090875 0.089129
v -0.020847 0.071400 0.104805
v -0.023164 0.049181 0.116453
v -0.024591 0.025072 0.123625
v -0.025072 0.000000 0.126047
v -0.024591 -0.025072 0.123625
v -0.023164 -0.049181 0.116453
v -0.020847 -0.071400 0.104805
v -0.017729 -0.090875 0.089129
v -0.013929 -0.106858 0.070028
v -0.009595 -0.118734 0.048236
v -0.004891 -0.126047 0.024591
v -0.009595 0.126047 0.023164
v -0.018821 0.118734 0.045438
v -0.027324 0.106858 0.065965
v -0.034776 0.090875 0.083958
v -0.040893 0.071400 0.098724
v -0.045438 0.049181 0.109696
v -0.048236 0.025072 0.116453
v -0.049181 0.000000 0.118734
v -0.048236 -0.025072 0.116453
v -0.045438 -0.049181 0.109696
v -0.040893 -0.071400 0.098724
v -0.034776 -0.090875 0.083958
v -0.027324 -0.106858 0.065965
v -0.018821 -0.118734 0.045438
v -0.009595 -0.126047 0.023164
v -0.013929 0.126047 0.020847
v -0.027324 0.118734 0.040893
v -0.039668 0.106858 0.059367
v -0.050488 0.090875 0.075560
v -0.059367 0.071400 0.088849
v -0.065965 0.049181 0.098724
v -0.070028 0.025072 0.104805
v -0.071400 0.000000 0.106858
v -0.070028 -0.025072 0.104805
v -0.065965 -0.049181 0.098724
v -0.059367 -0.071400 0.088849
v -0.050488 -0.090875 0.075560
v -0.039668 -0.106858 0.059367
v -0.027324 -0.118734 0.040893
v -0.013929 -0.126047 0.020847
v -0.017729 0.126047 0.017729
v -0.034776 0.118734 0.034776
v -0.050487 0.106858 0.050487
v -0.064258 0.090875 0.064258
v -0.075560 0.071400 0.075560
v -0.083958 0.049181 0.083958
v -0.089129 0.025072 0.089129
v -0.090875 0.000000 0.090875
v -0.089129 -0.025072 0.089129
v -0.083958 -0.049181 0.083958
v -0.075560 -0.071400 0.075560
v -0.064258 -0.090875 0.064258
v -0.050487 -0.106858 0.050487
v -0.034776 -0.118734 0.034776
v -0.017729 -0.126047 0.017729
v -0.020847 0.126047 0.013929
v -0.040893 0.118734 0.027324
v -0.059367 0.106858 0.039668
v -0.075560 0.090875 0.050488
v -0.088849 0.071400 0.059367
v -0.098724 0.049181 0.065965
v -0.104805 0.025072 0.070028
v -0.106858 0.000000 0.071400
v -0.104805 -0.025072 0.070028
v -0.098724 -0.049181 0.065965
v -0.088849 -0.071400 0.059367
v -0.075560 -0.090875 0.050488
v -0.059367 -0.106858 0.039668
v -0.040893 -0.118734 0.027324
v -0.020847 -0.126047 0.013929
v -0.023164 0.126047 0.009595
v -0.045438 0.118734 0.018821
v -0.065965 0.106858 0.027324
v -0.083958 0.090875 0.034776
v -0.098724 0.071400 0.040893
v -0.109696 0.049181 0.045438
v -0.116453 0.025072 0.048236
v -0.118734 0.000000 0.049181
v -0.116453 -0.025072 0.048236
v -0.109696 -0.049181 0.045438
v -0.098724 -0.071400 0.040893
v -0.083958 -0.090875 0.034776
v -0.065965 -0.106858 0.027324
v -0.045438 -0.118734 0.018821
v -0.023164 -0.126047 0.009595
v -0.024591 0.126047 0.004891
v -0.048236 0.118734 0.009595
v -0.070028 0.106858 0.013929
v -0.089129 0.090875 0.017729
v -0.104805 0.071400 0.020847
v -0.116453 0.049181 0.023164
v -0.123625 0.025072 0.024591
v -0.126047 0.000000 0.025072
v -0.123625 -0.025072 0.024591
v -0.116453 -0.049181 0.023164
v -0.104805 -0.071400 0.020847
v -0.089129 -0.090875 0.017729
v -0.070028 -0.106858 0.013929
v -0.048236 -0.118734 0.009595
v -0.024591 -0.126047 0.004891
v -0.025072 0.126047 -0.000000
v -0.049181 0.118734 -0.000000
v -0.071400 0.106858 -0.000000
v -0.090875 0.090875 -0.000000
v -0.106858 0.071400 -0.000000
v -0.118734 0.049181 -0.000000
v -0.126047 0.025072 -0.000000
v -0.128517 0.000000 -0.000000
v -0.126047 -0.025072 -0.000000
v -0.118734 -0.049181 -0.000000
v -0.106858 -0.071400 -0.000000
v -0.090875 -0.090875 -0.000000
v -0.071400 -0.106858 -0.000000
v -0.049181 -0.118734 -0.000000
v -0.025072 -0.126047 -0.000000
v -0.024591 0.126047 -0.004891
v -0.048236 0.118734 -0.009595
v -0.070028 0.106858 -0.013929
v -0.089129 0.090875 -0.017729
v -0.104805 0.071400 -0.020847
v -0.116453 0.049181 -0.023164
v -0.123625 0.025072 -0.024591
v -0.126047 0.000000 -0.025072
v -0.123625 -0.025072 -0.024591
v -0.116453 -0.049181 -0.023164
v -0.104805 -0.071400 -0.020847
v -0.089129 -0.090875 -0.017729
v -0.070028 -0.106858 -0.013929
v -0.048236 -0.118734 -0.009595
v -0.024591 -0.126047 -0.004891
v -0.023164 0.126047 -0.009595
v -0.045438 0.118734 -0.018821
v -0.065965 0.106858 -0.027324
v -0.083958 0.090875 -0.034776
v -0.098724 0.071400 -0.040893
v -0.109696 0.049181 -0.045438
v -0.116453 0.025072 -0.048236
v -0.118734 0.000000 -0.049181
v -0.116453 -0.025072 -0.048236
v -0.109696 -0.049181 -0.045438
v -0.098724 -0.071400 -0.040893
v -0.083958 -0.090875 -0.034776
v -0.065965 -0.106858 -0.027324
v -0.045438 -0.118734 -0.018821
v -0.023164 -0.126047 -0.009595
v -0.020847 0.126047 -0.013929
v -0.040893 0.118734 -0.027324
v -0.059367 0.106858 -0.039668
v -0.075560 0.090875 -0.050488
v -0.088849 0.071400 -0.059367
v -0.098724 0.049181 -0.065965
v -0.104805 0.025072 -0.070028
v -0.106858 0.000000 -0.071400
v -0.104805 -0.025072 -0.070028
v -0.098724 -0.049181 -0.065965
v -0.088849 -0.071400 -0.059367
v -0.075560 -0.090875 -0.050488
v -0.059367 -0.106858 -0.039668
v -0.040893 -0.118734 -0.027324
v -0.020847 -0.126047 -0.013929
v -0.017729 0.126047 -0.017729
v -0.034776 0.118734 -0.034776
v -0.050487 0.106858 -0.050487
v -0.064258 0.090875 -0.064258
v -0.075560 0.071400 -0.075560
v -0.083958 0.049181 -0.083958
v -0.089129 0.025072 -0.089129
v -0.090875 0.000000 -0.090875
v -0.089129 -0.025072 -0.089129
v -0.083958 -0.049181 -0.083958
v -0.075560 -0.071400 -0.075560
v -0.064258 -0.090875 -0.064258
v -0.050487 -0.106858 -0.050487
v -0.034776 -0.118734 -0.034776
v -0.017729 -0.126047 -0.017729
v -0.013929 0.126047 -0.020847
v -0.027324 0.118734 -0.040893
v -0.039668 0.106858 -0.059367
v -0.050487 0.090875 -0.075560
v -0.059367 0.071400 -0.088849
v -0.065965 0.049181 -0.098724
v -0.070028 0.025072 -0.104805
v -0.071400 0.000000 -0.106858
v -0.070028 -0.025072 -0.104805
v -0.065965 -0.049181 -0.098724
v -0.059367 -0.071400 -0.088849
v -0.050487 -0.090875 -0.075560
v -0.039668 -0.106858 -0.059367
v -0.027324 -0.118734 -0.040893
v -0.013929 -0.126047 -0.020847
v -0.009595 0.126047 -0.023164
v -0.018821 0.118734 -0.045438
v -0.027324 0.106858 -0.065965
v -0.034776 0.090875 -0.083958
v -0.040893 0.071400 -0.098724
v -0.045438 0.049181 -0.109696
v -0.048236 0.025072 -0.116453
v -0.049181 0.000000 -0.118734
v -0.048236 -0.025072 -0.116453
v -0.045438 -0.049181 -0.109696
v -0.040893 -0.071400 -0.098724
v -0.034776 -0.090875 -0.083958
v -0.027324 -0.106858 -0.065965
v -0.018821 -0.118734 -0.045438
v -0.009595 -0.126047 -0.023164
v -0.004891 0.126047 -0.024591
v -0.009595 0.118734 -0.048236
v -0.013929 0.106858 -0.070028
v -0.017729 0.090875 -0.089129
v -0.020847 0.071400 -0.104805
v -0.023164 0.049181 -0.116453
v -0.024591 0.025072 -0.123625
v -0.025072 0.000000 -0.126047
v -0.024591 -0.025072 -0.123625
v -0.023164 -0.049181 -0.116453
v -0.020847 -0.071400 -0.104805
v -0.017729 -0.090875 -0.089129
v -0.013929 -0.106858 -0.070028
v -0.009595 -0.118734 -0.048236
v -0.004891 -0.126047 -0.024591
v 0.000000 0.126047 -0.025072
v 0.000000 0.118734 -0.049181
v 0.000000 0.090875 -0.090875
v 0.000000 0.049181 -0.118734
v 0.000000 -0.049181 -0.118734
v 0.000000 -0.090875 -0.090875
v 0.000000 -0.106858 -0.071400
v 0.000000 -0.118734 -0.049181
v 0.000000 -0.126047 -0.025072
v 0.000000 0.089496 -0.076610
v 0.014946 0.089496 -0.075138
v 0.029318 0.089496 -0.070779
v 0.042562 0.089496 -0.063699
v 0.054172 0.089496 -0.054172
v 0.063699 0.089496 -0.042562
v 0.070779 0.089496 -0.029318
v 0.075138 0.089496 -0.014946
v 0.076610 0.089496 0.000000
v 0.075138 0.089496 0.014946
v 0.070779 0.089496 0.029318
v 0.063699 0.089496 0.042562
v 0.054172 0.089496 0.054172
v 0.042562 0.089496 0.063699
v 0.029318 0.089496 0.070779
v 0.014946 0.089496 0.075138
v 0.000000 0.089496 0.076610
v -0.014946 0.089496 0.075138
v -0.029318 0.089496 0.070779
v -0.042562 0.089496 0.063699
v -0.054172 0.089496 0.054172
v -0.063699 0.089496 0.042562
v -0.070779 0.089496 0.029318
v -0.075138 0.089496 0.014946
v -0.076610 0.089496 0.000000
v -0.075138 0.089496 -0.014946
v -0.070779 0.089496 -0.029318
v -0.063699 0.089496 -0.042562
v -0.054172 0.089496 -0.054172
v -0.042562 0.089496 -0.063699
v -0.029318 0.089496 -0.070779
v -0.014946 0.089496 -0.075138
v 0.000000 0.219102 -0.052901
v 0.000000 0.199143 -0.076610
v 0.010320 0.219102 -0.051884
v 0.014946 0.199143 -0.075138
v 0.020244 0.219102 -0.048874
v 0.029318 0.199143 -0.070779
v 0.029390 0.219102 -0.043985
v 0.042562 0.199143 -0.063699
v 0.037406 0.219102 -0.037406
v 0.054172 0.199143 -0.054172
v 0.043985 0.219102 -0.029390
v 0.063699 0.199143 -0.042562
v 0.048874 0.219102 -0.020244
v 0.070779 0.199143 -0.029318
v 0.051884 0.219102 -0.010320
v 0.075138 0.199143 -0.014946
v 0.052901 0.219102 0.000000
v 0.076610 0.199143 0.000000
v 0.051884 0.219102 0.010320
v 0.075138 0.199143 0.014946
v 0.048874 0.219102 0.020244
v 0.070779 0.199143 0.029318
v 0.043985 0.219102 0.029390
v 0.063699 0.199143 0.042562
v 0.037406 0.219102 0.037406
v 0.054172 0.199143 0.054172
v 0.029390 0.219102 0.043985
v 0.042562 0.199143 0.063699
v 0.020244 0.219102 0.048874
v 0.029318 0.199143 0.070779
v 0.010320 0.219102 0.051884
v 0.014946 0.199143 0.075138
v 0.000000 0.219102 0.052901
v 0.000000 0.199143 0.076610
v -0.010320 0.219102 0.051884
v -0.014946 0.199143 0.075138
v -0.020244 0.219102 0.048874
v -0.029318 0.199143 0.070779
v -0.029390 0.219102 0.043985
v -0.042562 0.199143 0.063699
v -0.037406 0.219102 0.037406
v -0.054172 0.199143 0.054172
v -0.043985 0.219102 0.029390
v -0.063699 0.199143 0.042562
v -0.048874 0.219102 0.020244
v -0.070779 0.199143 0.029318
v -0.051884 0.219102 0.010320
v -0.075138 0.199143 0.014946
v -0.052901 0.219102 0.000000
v -0.076610 0.199143 0.000000
v -0.051884 0.219102 -0.010320
v -0.075138 0.199143 -0.014946
v -0.048874 0.219102 -0.020244
v -0.070779 0.199143 -0.029318
v -0.043985 0.219102 -0.029390
v -0.063699 0.199143 -0.042562
v -0.037406 0.219102 -0.037406
v -0.054172 0.199143 -0.054172
v -0.029390 0.219102 -0.043985
v -0.042562 0.199143 -0.063699
v -0.020244 0.219102 -0.048874
v -0.029318 0.199143 -0.070779
v -0.010320 0.219102 -0.051884
v -0.014946 0.199143 -0.075138
vn 0.0624 0.7715 -0.6332
vn 0.0759 -0.6326 -0.7708
vn 0.0759 0.6326 -0.7708
vn 0.0624 -0.7715 -0.6332
vn 0.0865 0.4696 -0.8786
vn 0.0464 -0.8810 -0.4709
vn 0.0938 0.2890 -0.9527
vn 0.0286 -0.9565 -0.2902
vn 0.0975 0.0975 -0.9904
vn 0.0097 0.9951 -0.0980
vn 0.0097 -0.9951 -0.0980
vn 0.0975 -0.0975 -0.9904
vn 0.0286 0.9565 -0.2902
vn 0.0938 -0.2890 -0.9527
vn 0.0464 0.8810 -0.4709
vn 0.0865 -0.4696 -0.8786
vn 0.2779 -0.2890 -0.9161
vn 0.1374 0.8810 -0.4528
vn 0.2563 -0.4696 -0.8448
vn 0.1847 0.7715 -0.6088
vn 0.2248 -0.6326 -0.7412
vn 0.2248 0.6326 -0.7412
vn 0.1847 -0.7715 -0.6088
vn 0.2563 0.4696 -0.8448
vn 0.1374 -0.8810 -0.4528
vn 0.2779 0.2890 -0.9161
vn 0.0846 -0.9565 -0.2790
vn 0.2889 0.0976 -0.9524
vn 0.0286 0.9951 -0.0942
vn 0.0286 -0.9951 -0.0942
vn 0.2889 -0.0976 -0.9524
vn 0.0846 0.9565 -0.2790
vn 0.2230 -0.8810 -0.4173
vn 0.4513 0.2890 -0.8443
vn 0.1374 -0.9565 -0.2571
vn 0.4691 0.0975 -0.8777
vn 0.0464 0.9951 -0.0869
vn 0.0464 -0.9951 -0.0869
vn 0.4691 -0.0975 -0.8777
vn 0.1374 0.9565 -0.2571
vn 0.4513 -0.2890 -0.8443
vn 0.2230 0.8810 -0.4173
vn 0.4162 -0.4696 -0.7786
vn 0.2999 0.7715 -0.5611
vn 0.3651 -0.6326 -0.6831
vn 0.3651 0.6326 -0.6831
vn 0.2999 -0.7715 -0.5611
vn 0.4162 0.4696 -0.7786
vn 0.5601 -0.4696 -0.6825
vn 0.4036 0.7715 -0.4918
vn 0.4913 -0.6326 -0.5987
vn 0.4913 0.6326 -0.5987
vn 0.4036 -0.7715 -0.4918
vn 0.5601 0.4696 -0.6825
vn 0.3002 -0.8810 -0.3658
vn 0.6073 0.2890 -0.7400
vn 0.1850 -0.9565 -0.2254
vn 0.6314 0.0975 -0.7693
vn 0.0625 0.9951 -0.0761
vn 0.0625 -0.9951 -0.0761
vn 0.6314 -0.0975 -0.7693
vn 0.1850 0.9565 -0.2254
vn 0.6073 -0.2890 -0.7400
vn 0.3002 0.8810 -0.3658
vn 0.2254 -0.9565 -0.1850
vn 0.7693 0.0975 -0.6314
vn 0.0761 0.9951 -0.0625
vn 0.0761 -0.9951 -0.0625
vn 0.7693 -0.0975 -0.6314
vn 0.2254 0.9565 -0.1850
vn 0.7400 -0.2890 -0.6073
vn 0.3658 0.8810 -0.3002
vn 0.6825 -0.4696 -0.5601
vn 0.4918 0.7715 -0.4036
vn 0.5987 -0.6326 -0.4913
vn 0.5987 0.6326 -0.4913
vn 0.4918 -0.7715 -0.4036
vn 0.6825 0.4696 -0.5601
vn 0.3658 -0.8810 -0.3002
vn 0.7400 0.2890 -0.6073
vn 0.5611 0.7715 -0.2999
vn 0.6831 -0.6326 -0.3651
vn 0.6831 0.6326 -0.3651
vn 0.5611 -0.7715 -0.2999
vn 0.7786 0.4696 -0.4162
vn 0.4173 -0.8810 -0.2230
vn 0.8443 0.2890 -0.4513
vn 0.2571 -0.9565 -0.1374
vn 0.8777 0.0975 -0.4691
vn 0.0869 0.9951 -0.0464
vn 0.0869 -0.9951 -0.0464
vn 0.8777 -0.0975 -0.4691
vn 0.2571 0.9565 -0.1374
vn 0.8443 -0.2890 -0.4513
vn 0.4173 0.8810 -0.2230
vn 0.7786 -0.4696 -0.4162
vn 0.9524 0.0975 -0.2889
vn 0.0942 0.9951 -0.0286
vn 0.0942 -0.9951 -0.0286
vn 0.9524 -0.0975 -0.2889
vn 0.2790 0.9565 -0.0846
vn 0.9161 -0.2890 -0.2779
vn 0.4528 0.8810 -0.1374
vn 0.8448 -0.4696 -0.2563
vn 0.6088 0.7715 -0.1847
vn 0.7412 -0.6326 -0.2248
vn 0.7412 0.6326 -0.2248
vn 0.6088 -0.7715 -0.1847
vn 0.8448 0.4696 -0.2563
vn 0.4528 -0.8810 -0.1374
vn 0.9161 0.2890 -0.2779
vn 0.2790 -0.9565 -0.0846
vn 0.7708 -0.6326 -0.0759
vn 0.7708 0.6326 -0.0759
vn 0.6332 -0.7715 -0.0624
vn 0.8786 0.4696 -0.0865
vn 0.4709 -0.8810 -0.0464
vn 0.9527 0.2890 -0.0938
vn 0.2902 -0.9565 -0.0286
vn 0.9904 0.0975 -0.0975
vn 0.0980 0.9951 -0.0097
vn 0.0980 -0.9951 -0.0097
vn 0.9904 -0.0975 -0.0975
vn 0.2902 0.9565 -0.0286
vn 0.9527 -0.2890 -0.0938
vn 0.4709 0.8810 -0.0464
vn 0.8786 -0.4696 -0.0865
vn 0.6332 0.7715 -0.0624
vn 0.0980 0.9951 0.0097
vn 0.0980 -0.9951 0.0097
vn 0.9904 -0.0975 0.0976
vn 0.2902 0.9565 0.0286
vn 0.9527 -0.2890 0.0938
vn 0.4709 0.8810 0.0464
vn 0.8786 -0.4696 0.0865
vn 0.6332 0.7715 0.0624
vn 0.7708 -0.6326 0.0759
vn 0.7708 0.6326 0.0759
vn 0.6332 -0.7715 0.0624
vn 0.8786 0.4696 0.0865
vn 0.4709 -0.8810 0.0464
vn 0.9527 0.2890 0.0938
vn 0.2902 -0.9565 0.0286
vn 0.9904 0.0975 0.0976
vn 0.7412 0.6326 0.2248
vn 0.6088 -0.7715 0.1847
vn 0.8448 0.4696 0.2563
vn 0.4528 -0.8810 0.1374
vn 0.9161 0.2890 0.2779
vn 0.2790 -0.9565 0.0846
vn 0.9524 0.0975 0.2889
vn 0.0942 0.9951 0.0286
vn 0.0942 -0.9951 0.0286
vn 0.9524 -0.0975 0.2889
vn 0.2790 0.9565 0.0846
vn 0.9161 -0.2890 0.2779
vn 0.4528 0.8810 0.1374
vn 0.8448 -0.4696 0.2563
vn 0.6088 0.7715 0.1847
vn 0.7412 -0.6326 0.2248
vn 0.8777 -0.0975 0.4691
vn 0.2571 0.9565 0.1374
vn 0.8443 -0.2890 0.4513
vn 0.4173 0.8810 0.2230
vn 0.7786 -0.4696 0.4162
vn 0.5611 0.7715 0.2999
vn 0.6831 -0.6326 0.3651
vn 0.6831 0.6326 0.3651
vn 0.5611 -0.7715 0.2999
vn 0.7786 0.4696 0.4162
vn 0.4173 -0.8810 0.2230
vn 0.8443 0.2890 0.4513
vn 0.2571 -0.9565 0.1374
vn 0.8777 0.0975 0.4691
vn 0.0869 0.9951 0.0464
vn 0.0869 -0.9951 0.0464
vn 0.4918 -0.7715 0.4036
vn 0.6825 0.4696 0.5601
vn 0.3658 -0.8810 0.3002
vn 0.7400 0.2890 0.6073
vn 0.2254 -0.9565 0.1850
vn 0.7693 0.0975 0.6314
vn 0.0761 0.9951 0.0625
vn 0.0761 -0.9951 0.0625
vn 0.7693 -0.0975 0.6314
vn 0.2254 0.9565 0.1850
vn 0.7400 -0.2890 0.6073
vn 0.3658 0.8810 0.3002
vn 0.6825 -0.4696 0.5601
vn 0.4918 0.7715 0.4036
vn 0.5987 -0.6326 0.4913
vn 0.5987 0.6326 0.4913
vn 0.6073 -0.2890 0.7400
vn 0.3002 0.8810 0.3658
vn 0.5601 -0.4696 0.6825
vn 0.4036 0.7715 0.4918
vn 0.4913 -0.6326 0.5987
vn 0.4913 0.6326 0.5987
vn 0.4036 -0.7715 0.4918
vn 0.5601 0.4696 0.6825
vn 0.3002 -0.8810 0.3658
vn 0.6073 0.2890 0.7400
vn 0.1850 -0.9565 0.2254
vn 0.6314 0.0975 0.7693
vn 0.0625 0.9951 0.0761
vn 0.0625 -0.9951 0.0761
vn 0.6314 -0.0975 0.7693
vn 0.1850 0.9565 0.2254
vn 0.2230 -0.8810 0.4173
vn 0.4513 0.2890 0.8443
vn 0.1374 -0.9565 0.2571
vn 0.4691 0.0975 0.8777
vn 0.0464 0.9951 0.0869
vn 0.0464 -0.9951 0.0869
vn 0.4691 -0.0975 0.8777
vn 0.1374 0.9565 0.2571
vn 0.4513 -0.2890 0.8443
vn 0.2230 0.8810 0.4173
vn 0.4162 -0.4696 0.7786
vn 0.2999 0.7715 0.5611
vn 0.3651 -0.6326 0.6831
vn 0.3651 0.6326 0.6831
vn 0.2999 -0.7715 0.5611
vn 0.4162 0.4696 0.7786
vn 0.1374 0.8810 0.4528
vn 0.2563 -0.4696 0.8448
vn 0.1847 0.7715 0.6088
vn 0.2248 -0.6326 0.7412
vn 0.2248 0.6326 0.7412
vn 0.1847 -0.7715 0.6088
vn 0.2563 0.4696 0.8448
vn 0.1374 -0.8810 0.4528
vn 0.2779 0.2890 0.9161
vn 0.0846 -0.9565 0.2790
vn 0.2889 0.0975 0.9524
vn 0.0286 0.9951 0.0942
vn 0.0286 -0.9951 0.0942
vn 0.2889 -0.0975 0.9524
vn 0.0846 0.9565 0.2790
vn 0.2779 -0.2890 0.9161
vn 0.0938 0.2890 0.9527
vn 0.0286 -0.9565 0.2902
vn 0.0975 0.0975 0.9904
vn 0.0097 0.9951 0.0980
vn 0.0097 -0.9951 0.0980
vn 0.0975 -0.0975 0.9904
vn 0.0286 0.9565 0.2902
vn 0.0938 -0.2890 0.9527
vn 0.0464 0.8810 0.4709
vn 0.0865 -0.4696 0.8786
vn 0.0624 0.7715 0.6332
vn 0.0759 -0.6326 0.7708
vn 0.0759 0.6326 0.7708
vn 0.0624 -0.7715 0.6332
vn 0.0865 0.4696 0.8786
vn 0.0464 -0.8810 0.4709
vn -0.0865 -0.4696 0.8786
vn -0.0624 0.7715 0.6332
vn -0.0759 -0.6326 0.7708
vn -0.0759 0.6326 0.7708
vn -0.0624 -0.7715 0.6332
vn -0.0865 0.4696 0.8786
vn -0.0464 -0.8810 0.4709
vn -0.0938 0.2890 0.9527
vn -0.0286 -0.9565 0.2902
vn -0.0976 0.0975 0.9904
vn -0.0097 0.9951 0.0980
vn -0.0097 -0.9951 0.0980
vn -0.0976 -0.0975 0.9904
vn -0.0286 0.9565 0.2902
vn -0.0938 -0.2890 0.9527
vn -0.0464 0.8810 0.4709
vn -0.0846 -0.9565 0.2790
vn -0.2889 0.0975 0.9524
vn -0.0286 0.9951 0.0942
vn -0.0286 -0.9951 0.0942
vn -0.2889 -0.0975 0.9524
vn -0.0846 0.9565 0.2790
vn -0.2779 -0.2890 0.9161
vn -0.1374 0.8810 0.4528
vn -0.2563 -0.4696 0.8448
vn -0.1847 0.7715 0.6088
vn -0.2248 -0.6326 0.7412
vn -0.2248 0.6326 0.7412
vn -0.1847 -0.7715 0.6088
vn -0.2563 0.4696 0.8448
vn -0.1374 -0.8810 0.4528
vn -0.2779 0.2890 0.9161
vn -0.2999 0.7715 0.5611
vn -0.3651 -0.6326 0.6831
vn -0.3651 0.6326 0.6831
vn -0.2999 -0.7715 0.5611
vn -0.4162 0.4696 0.7786
vn -0.2230 -0.8810 0.4173
vn -0.4513 0.2890 0.8443
vn -0.1374 -0.9565 0.2571
vn -0.4691 0.0975 0.8777
vn -0.0464 0.9951 0.0869
vn -0.0464 -0.9951 0.0869
vn -0.4691 -0.0975 0.8777
vn -0.1374 0.9565 0.2571
vn -0.4513 -0.2890 0.8443
vn -0.2230 0.8810 0.4173
vn -0.4162 -0.4696 0.7786
vn -0.6314 0.0975 0.7693
vn -0.0625 0.9951 0.0761
vn -0.0625 -0.9951 0.0761
vn -0.6314 -0.0975 0.7693
vn -0.1850 0.9565 0.2254
vn -0.6073 -0.2890 0.7400
vn -0.3002 0.8810 0.3658
vn -0.5601 -0.4696 0.6825
vn -0.4036 0.7715 0.4918
vn -0.4913 -0.6326 0.5987
vn -0.4913 0.6326 0.5987
vn -0.4036 -0.7715 0.4918
vn -0.5601 0.4696 0.6825
vn -0.3002 -0.8810 0.3658
vn -0.6073 0.2890 0.7400
vn -0.1850 -0.9565 0.2254
vn -0.5987 -0.6326 0.4913
vn -0.5987 0.6326 0.4913
vn -0.4918 -0.7715 0.4036
vn -0.6825 0.4696 0.5601
vn -0.3658 -0.8810 0.3002
vn -0.7400 0.2890 0.6073
vn -0.2254 -0.9565 0.1850
vn -0.7693 0.0975 0.6314
vn -0.0761 0.9951 0.0625
vn -0.0761 -0.9951 0.0625
vn -0.7693 -0.0975 0.6314
vn -0.2254 0.9565 0.1850
vn -0.7400 -0.2890 0.6073
vn -0.3658 0.8810 0.3002
vn -0.6825 -0.4696 0.5601
vn -0.4918 0.7715 0.4036
vn -0.0869 -0.9951 0.0464
vn -0.8777 -0.0975 0.4691
vn -0.2571 0.9565 0.1374
vn -0.8443 -0.2890 0.4513
vn -0.4173 0.8810 0.2230
vn -0.7786 -0.4696 0.4162
vn -0.5611 0.7715 0.2999
vn -0.6831 -0.6326 0.3651
vn -0.6831 0.6326 0.3651
vn -0.5611 -0.7715 0.2999
vn -0.7786 0.4696 0.4162
vn -0.4173 -0.8810 0.2230
vn -0.8443 0.2890 0.4513
vn -0.2571 -0.9565 0.1374
vn -0.8777 0.0975 0.4691
vn -0.0869 0.9951 0.0464
vn -0.6088 -0.7715 0.1847
vn -0.8448 0.4696 0.2563
vn -0.4528 -0.8810 0.1374
vn -0.9161 0.2890 0.2779
vn -0.2790 -0.9565 0.0846
vn -0.9524 0.0975 0.2889
vn -0.0942 0.9951 0.0286
vn -0.0942 -0.9951 0.0286
vn -0.9524 -0.0975 0.2889
vn -0.2790 0.9565 0.0846
vn -0.9161 -0.2890 0.2779
vn -0.4528 0.8810 0.1374
vn -0.8448 -0.4696 0.2563
vn -0.6088 0.7715 0.1847
vn -0.7412 -0.6326 0.2248
vn -0.7412 0.6326 0.2248
vn -0.2902 0.9565 0.0286
vn -0.9527 -0.2890 0.0938
vn -0.4709 0.8810 0.0464
vn -0.8786 -0.4696 0.0865
vn -0.6332 0.7715 0.0624
vn -0.7708 -0.6326 0.0759
vn -0.7708 0.6326 0.0759
vn -0.6332 -0.7715 0.0624
vn -0.8786 0.4696 0.0865
vn -0.4709 -0.8810 0.0464
vn -0.9527 0.2890 0.0938
vn -0.2902 -0.9565 0.0286
vn -0.9904 0.0975 0.0975
vn -0.0980 0.9951 0.0097
vn -0.0980 -0.9951 0.0097
vn -0.9904 -0.0975 0.0975
vn -0.8786 0.4696 -0.0865
vn -0.4709 -0.8810 -0.0464
vn -0.9527 0.2890 -0.0938
vn -0.2902 -0.9565 -0.0286
vn -0.9904 0.0975 -0.0976
vn -0.0980 0.9951 -0.0097
vn -0.0980 -0.9951 -0.0097
vn -0.9904 -0.0975 -0.0976
vn -0.2902 0.9565 -0.0286
vn -0.9527 -0.2890 -0.0938
vn -0.4709 0.8810 -0.0464
vn -0.8786 -0.4696 -0.0865
vn -0.6332 0.7715 -0.0624
vn -0.7708 -0.6326 -0.0759
vn -0.7708 0.6326 -0.0759
vn -0.6332 -0.7715 -0.0624
vn -0.9161 -0.2890 -0.2779
vn -0.4528 0.8810 -0.1374
vn -0.8448 -0.4696 -0.2563
vn -0.6088 0.7715 -0.1847
vn -0.7412 -0.6326 -0.2248
vn -0.7412 0.6326 -0.2248
vn -0.6088 -0.7715 -0.1847
vn -0.8448 0.4696 -0.2563
vn -0.4528 -0.8810 -0.1374
vn -0.9161 0.2890 -0.2779
vn -0.2790 -0.9565 -0.0846
vn -0.9524 0.0975 -0.2889
vn -0.0942 0.9951 -0.0286
vn -0.0942 -0.9951 -0.0286
vn -0.9524 -0.0975 -0.2889
vn -0.2790 0.9565 -0.0846
vn -0.4173 -0.8810 -0.2231
vn -0.8443 0.2890 -0.4513
vn -0.2571 -0.9565 -0.1374
vn -0.8777 0.0975 -0.4691
vn -0.0869 0.9951 -0.0464
vn -0.0869 -0.9951 -0.0464
vn -0.8777 -0.0975 -0.4691
vn -0.2571 0.9565 -0.1374
vn -0.8443 -0.2890 -0.4513
vn -0.4173 0.8810 -0.2231
vn -0.7786 -0.4696 -0.4162
vn -0.5611 0.7715 -0.2999
vn -0.6831 -0.6326 -0.3651
vn -0.6831 0.6326 -0.3651
vn -0.5611 -0.7715 -0.2999
vn -0.7786 0.4696 -0.4162
vn -0.3658 0.8810 -0.3002
vn -0.6825 -0.4696 -0.5601
vn -0.4918 0.7715 -0.4036
vn -0.5987 -0.6326 -0.4913
vn -0.5987 0.6326 -0.4913
vn -0.4918 -0.7715 -0.4036
vn -0.6825 0.4696 -0.5601
vn -0.3658 -0.8810 -0.3002
vn -0.7400 0.2890 -0.6073
vn -0.2254 -0.9565 -0.1850
vn -0.7693 0.0975 -0.6314
vn -0.0761 0.9951 -0.0625
vn -0.0761 -0.9951 -0.0625
vn -0.7693 -0.0975 -0.6314
vn -0.2254 0.9565 -0.1850
vn -0.7400 -0.2890 -0.6073
vn -0.6073 0.2890 -0.7400
vn -0.1850 -0.9565 -0.2254
vn -0.6314 0.0975 -0.7693
vn -0.0625 0.9951 -0.0761
vn -0.0625 -0.9951 -0.0761
vn -0.6314 -0.0975 -0.7693
vn -0.1850 0.9565 -0.2254
vn -0.6073 -0.2890 -0.7400
vn -0.3002 0.8810 -0.3658
vn -0.5601 -0.4696 -0.6825
vn -0.4036 0.7715 -0.4918
vn -0.4913 -0.6326 -0.5987
vn -0.4913 0.6326 -0.5987
vn -0.4036 -0.7715 -0.4918
vn -0.5601 0.4696 -0.6825
vn -0.3002 -0.8810 -0.3658
vn -0.4162 -0.4696 -0.7786
vn -0.2999 0.7715 -0.5611
vn -0.3651 -0.6326 -0.6831
vn -0.3651 0.6326 -0.6831
vn -0.2999 -0.7715 -0.5611
vn -0.4162 0.4696 -0.7786
vn -0.2230 -0.8810 -0.4173
vn -0.4513 0.2890 -0.8443
vn -0.1374 -0.9565 -0.2571
vn -0.4691 0.0975 -0.8777
vn -0.0464 0.9951 -0.0869
vn -0.0464 -0.9951 -0.0869
vn -0.4691 -0.0975 -0.8777
vn -0.1374 0.9565 -0.2571
vn -0.4513 -0.2890 -0.8443
vn -0.2230 0.8810 -0.4173
vn -0.0846 -0.9565 -0.2790
vn -0.2889 0.0975 -0.9524
vn -0.0286 0.9951 -0.0942
vn -0.0286 -0.9951 -0.0942
vn -0.2889 -0.0975 -0.9524
vn -0.0846 0.9565 -0.2790
vn -0.2779 -0.2890 -0.9161
vn -0.1374 0.8810 -0.4528
vn -0.2563 -0.4696 -0.8448
vn -0.1847 0.7715 -0.6088
vn -0.2248 -0.6326 -0.7412
vn -0.2248 0.6326 -0.7412
vn -0.1847 -0.7715 -0.6088
vn -0.2563 0.4696 -0.8448
vn -0.1374 -0.8810 -0.4528
vn -0.2779 0.2890 -0.9161
vn -0.0759 -0.6326 -0.7708
vn -0.0759 0.6326 -0.7708
vn -0.0624 -0.7715 -0.6332
vn -0.0865 0.4696 -0.8786
vn -0.0464 -0.8810 -0.4709
vn -0.0938 0.2890 -0.9527
vn -0.0286 -0.9565 -0.2902
vn -0.0976 0.0975 -0.9904
vn -0.0097 0.9951 -0.0980
vn -0.0097 -0.9951 -0.0980
vn -0.0976 -0.0975 -0.9904
vn -0.0286 0.9565 -0.2902
vn -0.0938 -0.2890 -0.9527
vn -0.0464 0.8810 -0.4709
vn -0.0865 -0.4696 -0.8786
vn -0.0624 0.7715 -0.6332
vn -0.0000 -1.0000 -0.0000
vn 0.0633 0.7635 -0.6427
vn 0.1875 0.7635 -0.6180
vn 0.3044 0.7635 -0.5696
vn 0.4097 0.7635 -0.4992
vn 0.4992 0.7635 -0.4097
vn 0.5696 0.7635 -0.3044
vn 0.6180 0.7635 -0.1875
vn 0.6427 0.7635 -0.0633
vn 0.6427 0.7635 0.0633
vn 0.6180 0.7635 0.1875
vn 0.5696 0.7635 0.3044
vn 0.4992 0.7635 0.4097
vn 0.4097 0.7635 0.4992
vn 0.3044 0.7635 0.5696
vn 0.1875 0.7635 0.6180
vn 0.0633 0.7635 0.6427
vn -0.0633 0.7635 0.6427
vn -0.1875 0.7635 0.6180
vn -0.3044 0.7635 0.5696
vn -0.4097 0.7635 0.4992
vn -0.4992 0.7635 0.4097
vn -0.5696 0.7635 0.3044
vn -0.6180 0.7635 0.1875
vn -0.6427 0.7635 0.0633
vn -0.6427 0.7635 -0.0633
vn -0.6180 0.7635 -0.1875
vn -0.5696 0.7635 -0.3044
vn -0.4992 0.7635 -0.4097
vn -0.4097 0.7635 -0.4992
vn -0.3044 0.7635 -0.5696
vn -0.1875 0.7635 -0.6180
vn -0.0633 0.7635 -0.6427
vn -0.0000 1.0000 -0.0000
vn 0.0980 -0.0000 -0.9952
vn -0.0980 -0.0000 -0.9952
vn 0.2903 -0.0000 -0.9569
vn 0.4714 -0.0000 -0.8819
vn 0.6344 -0.0000 -0.7730
vn 0.7730 -0.0000 -0.6344
vn 0.8819 -0.0000 -0.4714
vn 0.9569 -0.0000 -0.2903
vn 0.9952 -0.0000 -0.0980
vn 0.9952 -0.0000 0.0980
vn 0.9569 -0.0000 0.2903
vn 0.8819 -0.0000 0.4714
vn 0.7730 -0.0000 0.6344
vn 0.6344 -0.0000 0.7730
vn 0.4714 -0.0000 0.8819
vn 0.2903 -0.0000 0.9569
vn 0.0980 -0.0000 0.9952
vn -0.0980 -0.0000 0.9952
vn -0.2903 -0.0000 0.9569
vn -0.4714 -0.0000 0.8819
vn -0.6344 -0.0000 0.7730
vn -0.7730 -0.0000 0.6344
vn -0.8819 -0.0000 0.4714
vn -0.9569 -0.0000 0.2903
vn -0.9952 -0.0000 0.0980
vn -0.9952 -0.0000 -0.0980
vn -0.9569 -0.0000 -0.2903
vn -0.8819 -0.0000 -0.4714
vn -0.7730 -0.0000 -0.6344
vn -0.6344 -0.0000 -0.7730
vn -0.4714 -0.0000 -0.8819
vn -0.2903 -0.0000 -0.9569
vt 0.750000 0.750000
vt 0.750000 0.812500
vt 0.718750 0.812500
vt 0.718750 0.750000
vt 0.750000 0.250000
vt 0.750000 0.312500
vt 0.718750 0.312500
vt 0.718750 0.250000
vt 0.750000 0.687500
vt 0.718750 0.687500
vt 0.750000 0.187500
vt 0.718750 0.187500
vt 0.750000 0.625000
vt 0.718750 0.625000
vt 0.750000 0.125000
vt 0.718750 0.125000
vt 0.750000 0.562500
vt 0.718750 0.562500
vt 0.750000 0.062500
vt 0.718750 0.062500
vt 0.750000 0.500000
vt 0.718750 0.500000
vt 0.750000 0.937500
vt 0.734375 1.000000
vt 0.718750 0.937500
vt 0.734375 0.000000
vt 0.750000 0.437500
vt 0.718750 0.437500
vt 0.750000 0.875000
vt 0.718750 0.875000
vt 0.750000 0.375000
vt 0.718750 0.375000
vt 0.687500 0.437500
vt 0.687500 0.375000
vt 0.687500 0.875000
vt 0.687500 0.812500
vt 0.687500 0.312500
vt 0.687500 0.750000
vt 0.687500 0.250000
vt 0.687500 0.687500
vt 0.687500 0.187500
vt 0.687500 0.625000
vt 0.687500 0.125000
vt 0.687500 0.562500
vt 0.687500 0.062500
vt 0.687500 0.500000
vt 0.703125 1.000000
vt 0.687500 0.937500
vt 0.703125 0.000000
vt 0.656250 0.187500
vt 0.656250 0.125000
vt 0.656250 0.625000
vt 0.656250 0.562500
vt 0.656250 0.062500
vt 0.656250 0.500000
vt 0.671875 1.000000
vt 0.656250 0.937500
vt 0.671875 0.000000
vt 0.656250 0.437500
vt 0.656250 0.875000
vt 0.656250 0.375000
vt 0.656250 0.812500
vt 0.656250 0.312500
vt 0.656250 0.750000
vt 0.656250 0.250000
vt 0.656250 0.687500
vt 0.625000 0.375000
vt 0.625000 0.312500
vt 0.625000 0.812500
vt 0.625000 0.750000
vt 0.625000 0.250000
vt 0.625000 0.687500
vt 0.625000 0.187500
vt 0.625000 0.625000
vt 0.625000 0.125000
vt 0.625000 0.562500
vt 0.625000 0.062500
vt 0.625000 0.500000
vt 0.640625 1.000000
vt 0.625000 0.937500
vt 0.640625 0.000000
vt 0.625000 0.437500
vt 0.625000 0.875000
vt 0.593750 0.125000
vt 0.593750 0.062500
vt 0.593750 0.562500
vt 0.593750 0.500000
vt 0.609375 1.000000
vt 0.593750 0.937500
vt 0.609375 0.000000
vt 0.593750 0.437500
vt 0.593750 0.875000
vt 0.593750 0.375000
vt 0.593750 0.812500
vt 0.593750 0.312500
vt 0.593750 0.750000
vt 0.593750 0.250000
vt 0.593750 0.687500
vt 0.593750 0.187500
vt 0.593750 0.625000
vt 0.562500 0.812500
vt 0.562500 0.750000
vt 0.562500 0.312500
vt 0.562500 0.250000
vt 0.562500 0.687500
vt 0.562500 0.187500
vt 0.562500 0.625000
vt 0.562500 0.125000
vt 0.562500 0.562500
vt 0.562500 0.062500
vt 0.562500 0.500000
vt 0.578125 1.000000
vt 0.562500 0.937500
vt 0.578125 0.000000
vt 0.562500 0.437500
vt 0.562500 0.875000
vt 0.562500 0.375000
vt 0.531250 0.562500
vt 0.531250 0.500000
vt 0.546875 1.000000
vt 0.531250 0.937500
vt 0.546875 0.000000
vt 0.531250 0.062500
vt 0.531250 0.437500
vt 0.531250 0.875000
vt 0.531250 0.375000
vt 0.531250 0.812500
vt 0.531250 0.312500
vt 0.531250 0.750000
vt 0.531250 0.250000
vt 0.531250 0.687500
vt 0.531250 0.187500
vt 0.531250 0.625000
vt 0.531250 0.125000
vt 0.500000 0.312500
vt 0.500000 0.250000
vt 0.500000 0.750000
vt 0.500000 0.687500
vt 0.500000 0.187500
vt 0.500000 0.625000
vt 0.500000 0.125000
vt 0.500000 0.562500
vt 0.500000 0.062500
vt 0.500000 0.500000
vt 0.515625 1.000000
vt 0.500000 0.937500
vt 0.515625 0.000000
vt 0.500000 0.437500
vt 0.500000 0.875000
vt 0.500000 0.375000
vt 0.500000 0.812500
vt 0.484375 1.000000
vt 0.468750 0.937500
vt 0.484375 0.000000
vt 0.468750 0.062500
vt 0.468750 0.500000
vt 0.468750 0.437500
vt 0.468750 0.875000
vt 0.468750 0.375000
vt 0.468750 0.812500
vt 0.468750 0.312500
vt 0.468750 0.750000
vt 0.468750 0.250000
vt 0.468750 0.687500
vt 0.468750 0.187500
vt 0.468750 0.625000
vt 0.468750 0.125000
vt 0.468750 0.562500
vt 0.437500 0.750000
vt 0.437500 0.687500
vt 0.437500 0.250000
vt 0.437500 0.187500
vt 0.437500 0.625000
vt 0.437500 0.125000
vt 0.437500 0.562500
vt 0.437500 0.062500
vt 0.437500 0.500000
vt 0.453125 1.000000
vt 0.437500 0.937500
vt 0.453125 0.000000
vt 0.437500 0.437500
vt 0.437500 0.875000
vt 0.437500 0.375000
vt 0.437500 0.812500
vt 0.437500 0.312500
vt 0.406250 0.500000
vt 0.406250 0.437500
vt 0.406250 0.937500
vt 0.406250 0.875000
vt 0.406250 0.375000
vt 0.406250 0.812500
vt 0.406250 0.312500
vt 0.406250 0.750000
vt 0.406250 0.250000
vt 0.406250 0.687500
vt 0.406250 0.187500
vt 0.406250 0.625000
vt 0.406250 0.125000
vt 0.406250 0.562500
vt 0.406250 0.062500
vt 0.421875 1.000000
vt 0.421875 0.000000
vt 0.375000 0.250000
vt 0.375000 0.187500
vt 0.375000 0.687500
vt 0.375000 0.625000
vt 0.375000 0.125000
vt 0.375000 0.562500
vt 0.375000 0.062500
vt 0.375000 0.500000
vt 0.390625 1.000000
vt 0.375000 0.937500
vt 0.390625 0.000000
vt 0.375000 0.437500
vt 0.375000 0.875000
vt 0.375000 0.375000
vt 0.375000 0.812500
vt 0.375000 0.312500
vt 0.375000 0.750000
vt 0.343750 0.437500
vt 0.343750 0.375000
vt 0.343750 0.875000
vt 0.343750 0.812500
vt 0.343750 0.312500
vt 0.343750 0.750000
vt 0.343750 0.250000
vt 0.343750 0.687500
vt 0.343750 0.187500
vt 0.343750 0.625000
vt 0.343750 0.125000
vt 0.343750 0.562500
vt 0.343750 0.062500
vt 0.343750 0.500000
vt 0.359375 1.000000
vt 0.343750 0.937500
vt 0.359375 0.000000
vt 0.312500 0.187500
vt 0.312500 0.125000
vt 0.312500 0.625000
vt 0.312500 0.562500
vt 0.312500 0.062500
vt 0.312500 0.500000
vt 0.328125 1.000000
vt 0.312500 0.937500
vt 0.328125 0.000000
vt 0.312500 0.437500
vt 0.312500 0.875000
vt 0.312500 0.375000
vt 0.312500 0.812500
vt 0.312500 0.312500
vt 0.312500 0.750000
vt 0.312500 0.250000
vt 0.312500 0.687500
vt 0.281250 0.875000
vt 0.281250 0.812500
vt 0.281250 0.375000
vt 0.281250 0.312500
vt 0.281250 0.750000
vt 0.281250 0.250000
vt 0.281250 0.687500
vt 0.281250 0.187500
vt 0.281250 0.625000
vt 0.281250 0.125000
vt 0.281250 0.562500
vt 0.281250 0.062500
vt 0.281250 0.500000
vt 0.296875 1.000000
vt 0.281250 0.937500
vt 0.296875 0.000000
vt 0.281250 0.437500
vt 0.250000 0.625000
vt 0.250000 0.562500
vt 0.250000 0.125000
vt 0.250000 0.062500
vt 0.250000 0.500000
vt 0.265625 1.000000
vt 0.250000 0.937500
vt 0.265625 0.000000
vt 0.250000 0.437500
vt 0.250000 0.875000
vt 0.250000 0.375000
vt 0.250000 0.812500
vt 0.250000 0.312500
vt 0.250000 0.750000
vt 0.250000 0.250000
vt 0.250000 0.687500
vt 0.250000 0.187500
vt 0.218750 0.375000
vt 0.218750 0.312500
vt 0.218750 0.812500
vt 0.218750 0.750000
vt 0.218750 0.250000
vt 0.218750 0.687500
vt 0.218750 0.187500
vt 0.218750 0.625000
vt 0.218750 0.125000
vt 0.218750 0.562500
vt 0.218750 0.062500
vt 0.218750 0.500000
vt 0.234375 1.000000
vt 0.218750 0.937500
vt 0.234375 0.000000
vt 0.218750 0.437500
vt 0.218750 0.875000
vt 0.187500 0.125000
vt 0.187500 0.062500
vt 0.187500 0.562500
vt 0.187500 0.500000
vt 0.203125 1.000000
vt 0.187500 0.937500
vt 0.203125 0.000000
vt 0.187500 0.437500
vt 0.187500 0.875000
vt 0.187500 0.375000
vt 0.187500 0.812500
vt 0.187500 0.312500
vt 0.187500 0.750000
vt 0.187500 0.250000
vt 0.187500 0.687500
vt 0.187500 0.187500
vt 0.187500 0.625000
vt 0.156250 0.812500
vt 0.156250 0.750000
vt 0.156250 0.312500
vt 0.156250 0.250000
vt 0.156250 0.687500
vt 0.156250 0.187500
vt 0.156250 0.625000
vt 0.156250 0.125000
vt 0.156250 0.562500
vt 0.156250 0.062500
vt 0.156250 0.500000
vt 0.171875 1.000000
vt 0.156250 0.937500
vt 0.171875 0.000000
vt 0.156250 0.437500
vt 0.156250 0.875000
vt 0.156250 0.375000
vt 0.125000 0.562500
vt 0.125000 0.500000
vt 0.140625 1.000000
vt 0.125000 0.937500
vt 0.140625 0.000000
vt 0.125000 0.062500
vt 0.125000 0.437500
vt 0.125000 0.875000
vt 0.125000 0.375000
vt 0.125000 0.812500
vt 0.125000 0.312500
vt 0.125000 0.750000
vt 0.125000 0.250000
vt 0.125000 0.687500
vt 0.125000 0.187500
vt 0.125000 0.625000
vt 0.125000 0.125000
vt 0.093750 0.312500
vt 0.093750 0.250000
vt 0.093750 0.750000
vt 0.093750 0.687500
vt 0.093750 0.187500
vt 0.093750 0.625000
vt 0.093750 0.125000
vt 0.093750 0.562500
vt 0.093750 0.062500
vt 0.093750 0.500000
vt 0.109375 1.000000
vt 0.093750 0.937500
vt 0.109375 0.000000
vt 0.093750 0.437500
vt 0.093750 0.875000
vt 0.093750 0.375000
vt 0.093750 0.812500
vt 0.078125 0.000000
vt 0.062500 0.062500
vt 0.062500 0.500000
vt 0.062500 0.437500
vt 0.062500 0.937500
vt 0.062500 0.875000
vt 0.062500 0.375000
vt 0.062500 0.812500
vt 0.062500 0.312500
vt 0.062500 0.750000
vt 0.062500 0.250000
vt 0.062500 0.687500
vt 0.062500 0.187500
vt 0.062500 0.625000
vt 0.062500 0.125000
vt 0.062500 0.562500
vt 0.078125 1.000000
vt 0.031250 0.250000
vt 0.031250 0.187500
vt 0.031250 0.687500
vt 0.031250 0.625000
vt 0.031250 0.125000
vt 0.031250 0.562500
vt 0.031250 0.062500
vt 0.031250 0.500000
vt 0.046875 1.000000
vt 0.031250 0.937500
vt 0.046875 0.000000
vt 0.031250 0.437500
vt 0.031250 0.875000
vt 0.031250 0.375000
vt 0.031250 0.812500
vt 0.031250 0.312500
vt 0.031250 0.750000
vt 0.000000 0.937500
vt 0.000000 0.875000
vt 0.000000 0.437500
vt 0.000000 0.375000
vt 0.000000 0.812500
vt 0.000000 0.312500
vt 0.000000 0.750000
vt 0.000000 0.250000
vt 0.000000 0.687500
vt 0.000000 0.187500
vt 0.000000 0.625000
vt 0.000000 0.125000
vt 0.000000 0.562500
vt 0.000000 0.062500
vt 0.000000 0.500000
vt 0.015625 1.000000
vt 0.015625 0.000000
vt 1.000000 0.625000
vt 1.000000 0.687500
vt 0.968750 0.687500
vt 0.968750 0.625000
vt 1.000000 0.125000
vt 1.000000 0.187500
vt 0.968750 0.187500
vt 0.968750 0.125000
vt 1.000000 0.562500
vt 0.968750 0.562500
vt 1.000000 0.062500
vt 0.968750 0.062500
vt 1.000000 0.500000
vt 0.968750 0.500000
vt 1.000000 0.937500
vt 0.984375 1.000000
vt 0.968750 0.937500
vt 0.984375 0.000000
vt 1.000000 0.437500
vt 0.968750 0.437500
vt 1.000000 0.875000
vt 0.968750 0.875000
vt 1.000000 0.375000
vt 0.968750 0.375000
vt 1.000000 0.812500
vt 0.968750 0.812500
vt 1.000000 0.312500
vt 0.968750 0.312500
vt 1.000000 0.750000
vt 0.968750 0.750000
vt 1.000000 0.250000
vt 0.968750 0.250000
vt 0.937500 0.437500
vt 0.937500 0.375000
vt 0.937500 0.875000
vt 0.937500 0.812500
vt 0.937500 0.312500
vt 0.937500 0.750000
vt 0.937500 0.250000
vt 0.937500 0.687500
vt 0.937500 0.187500
vt 0.937500 0.625000
vt 0.937500 0.125000
vt 0.937500 0.562500
vt 0.937500 0.062500
vt 0.937500 0.500000
vt 0.953125 1.000000
vt 0.937500 0.937500
vt 0.953125 0.000000
vt 0.906250 0.187500
vt 0.906250 0.125000
vt 0.906250 0.625000
vt 0.906250 0.562500
vt 0.906250 0.062500
vt 0.906250 0.500000
vt 0.921875 1.000000
vt 0.906250 0.937500
vt 0.921875 0.000000
vt 0.906250 0.437500
vt 0.906250 0.875000
vt 0.906250 0.375000
vt 0.906250 0.812500
vt 0.906250 0.312500
vt 0.906250 0.750000
vt 0.906250 0.250000
vt 0.906250 0.687500
vt 0.875000 0.875000
vt 0.875000 0.812500
vt 0.875000 0.375000
vt 0.875000 0.312500
vt 0.875000 0.750000
vt 0.875000 0.250000
vt 0.875000 0.687500
vt 0.875000 0.187500
vt 0.875000 0.625000
vt 0.875000 0.125000
vt 0.875000 0.562500
vt 0.875000 0.062500
vt 0.875000 0.500000
vt 0.890625 1.000000
vt 0.875000 0.937500
vt 0.890625 0.000000
vt 0.875000 0.437500
vt 0.843750 0.625000
vt 0.843750 0.562500
vt 0.843750 0.125000
vt 0.843750 0.062500
vt 0.843750 0.500000
vt 0.859375 1.000000
vt 0.843750 0.937500
vt 0.859375 0.000000
vt 0.843750 0.437500
vt 0.843750 0.875000
vt 0.843750 0.375000
vt 0.843750 0.812500
vt 0.843750 0.312500
vt 0.843750 0.750000
vt 0.843750 0.250000
vt 0.843750 0.687500
vt 0.843750 0.187500
vt 0.812500 0.375000
vt 0.812500 0.312500
vt 0.812500 0.812500
vt 0.812500 0.750000
vt 0.812500 0.250000
vt 0.812500 0.687500
vt 0.812500 0.187500
vt 0.812500 0.625000
vt 0.812500 0.125000
vt 0.812500 0.562500
vt 0.812500 0.062500
vt 0.812500 0.500000
vt 0.828125 1.000000
vt 0.812500 0.937500
vt 0.828125 0.000000
vt 0.812500 0.437500
vt 0.812500 0.875000
vt 0.781250 0.125000
vt 0.781250 0.062500
vt 0.781250 0.562500
vt 0.781250 0.500000
vt 0.796875 1.000000
vt 0.781250 0.937500
vt 0.796875 0.000000
vt 0.781250 0.437500
vt 0.781250 0.875000
vt 0.781250 0.375000
vt 0.781250 0.812500
vt 0.781250 0.312500
vt 0.781250 0.750000
vt 0.781250 0.250000
vt 0.781250 0.687500
vt 0.781250 0.187500
vt 0.781250 0.625000
vt 0.765625 1.000000
vt 0.765625 0.000000
vt 0.750000 0.490000
vt 0.796822 0.485388
vt 0.841844 0.471731
vt 0.883337 0.449553
vt 0.919706 0.419706
vt 0.949553 0.383337
vt 0.971731 0.341844
vt 0.985388 0.296822
vt 0.990000 0.250000
vt 0.985388 0.203178
vt 0.971731 0.158156
vt 0.949553 0.116663
vt 0.919706 0.080294
vt 0.883337 0.050447
vt 0.841844 0.028269
vt 0.796822 0.014612
vt 0.750000 0.010000
vt 0.703178 0.014612
vt 0.658156 0.028269
vt 0.616663 0.050447
vt 0.580294 0.080294
vt 0.550447 0.116663
vt 0.528269 0.158156
vt 0.514612 0.203178
vt 0.510000 0.250000
vt 0.514612 0.296822
vt 0.528269 0.341844
vt 0.550447 0.383337
vt 0.580294 0.419706
vt 0.616663 0.449553
vt 0.658156 0.471731
vt 0.703178 0.485388
vt 0.296822 0.485388
vt 0.250000 0.490000
vt 0.250000 0.415724
vt 0.282331 0.412540
vt 0.341844 0.471731
vt 0.313420 0.403109
vt 0.383337 0.449553
vt 0.342071 0.387795
vt 0.419706 0.419706
vt 0.367185 0.367185
vt 0.449553 0.383337
vt 0.387795 0.342071
vt 0.471731 0.341844
vt 0.403109 0.313420
vt 0.485388 0.296822
vt 0.412540 0.282331
vt 0.490000 0.250000
vt 0.415724 0.250000
vt 0.485388 0.203178
vt 0.412540 0.217669
vt 0.471731 0.158156
vt 0.403109 0.186580
vt 0.449553 0.116663
vt 0.387795 0.157929
vt 0.419706 0.080294
vt 0.367185 0.132815
vt 0.383337 0.050447
vt 0.342071 0.112205
vt 0.341844 0.028269
vt 0.313420 0.096891
vt 0.296822 0.014612
vt 0.282331 0.087460
vt 0.250000 0.010000
vt 0.250000 0.084276
vt 0.203178 0.014612
vt 0.217669 0.087460
vt 0.158156 0.028269
vt 0.186580 0.096891
vt 0.116663 0.050447
vt 0.157929 0.112205
vt 0.080294 0.080294
vt 0.132815 0.132815
vt 0.050447 0.116663
vt 0.112205 0.157929
vt 0.028269 0.158156
vt 0.096891 0.186580
vt 0.014612 0.203178
vt 0.087460 0.217669
vt 0.010000 0.250000
vt 0.084276 0.250000
vt 0.014612 0.296822
vt 0.087460 0.282331
vt 0.028269 0.341844
vt 0.096891 0.313420
vt 0.050447 0.383337
vt 0.112205 0.342071
vt 0.080294 0.419706
vt 0.132815 0.367185
vt 0.116663 0.449553
vt 0.157929 0.387795
vt 0.158156 0.471731
vt 0.186580 0.403109
vt 0.203178 0.485388
vt 0.217669 0.412540
vt 1.000000 0.923002
vt 0.968750 0.923002
vt 0.968750 0.500000
vt 0.031250 0.500000
vt 0.031250 0.923002
vt 0.000000 0.923002
vt 0.937500 0.923002
vt 0.937500 0.500000
vt 0.906250 0.923002
vt 0.906250 0.500000
vt 0.875000 0.923002
vt 0.875000 0.500000
vt 0.843750 0.923002
vt 0.843750 0.500000
vt 0.812500 0.923002
vt 0.812500 0.500000
vt 0.781250 0.923002
vt 0.781250 0.500000
vt 0.750000 0.923002
vt 0.718750 0.923002
vt 0.687500 0.923002
vt 0.656250 0.923002
vt 0.625000 0.923002
vt 0.593750 0.923002
vt 0.562500 0.923002
vt 0.531250 0.923002
vt 0.500000 0.923002
vt 0.500000 0.500000
vt 0.468750 0.923002
vt 0.468750 0.500000
vt 0.437500 0.923002
vt 0.437500 0.500000
vt 0.406250 0.923002
vt 0.406250 0.500000
vt 0.375000 0.923002
vt 0.375000 0.500000
vt 0.343750 0.923002
vt 0.343750 0.500000
vt 0.312500 0.923002
vt 0.312500 0.500000
vt 0.281250 0.923002
vt 0.281250 0.500000
vt 0.250000 0.923002
vt 0.250000 0.500000
vt 0.218750 0.923002
vt 0.218750 0.500000
vt 0.187500 0.923002
vt 0.187500 0.500000
vt 0.156250 0.923002
vt 0.156250 0.500000
vt 0.125000 0.923002
vt 0.125000 0.500000
vt 0.093750 0.923002
vt 0.093750 0.500000
vt 0.062500 0.923002
vt 0.062500 0.500000
s 0
usemtl Material.003
f 476/1/1 2/2/1 11/3/1 12/4/1
f 479/5/2 7/6/2 19/7/2 20/8/2
f 3/9/3 476/1/3 12/4/3 13/10/3
f 480/11/4 479/5/4 20/8/4 21/12/4
f 477/13/5 3/9/5 13/10/5 14/14/5
f 481/15/6 480/11/6 21/12/6 22/16/6
f 4/17/7 477/13/7 14/14/7 15/18/7
f 482/19/8 481/15/8 22/16/8 23/20/8
f 5/21/9 4/17/9 15/18/9 16/22/9
f 474/23/10 1/24/10 9/25/10
f 8/26/11 482/19/11 23/20/11
f 6/27/12 5/21/12 16/22/12 17/28/12
f 475/29/13 474/23/13 9/25/13 10/30/13
f 478/31/14 6/27/14 17/28/14 18/32/14
f 2/2/15 475/29/15 10/30/15 11/3/15
f 7/6/16 478/31/16 18/32/16 19/7/16
f 18/32/17 17/28/17 32/33/17 33/34/17
f 11/3/18 10/30/18 25/35/18 26/36/18
f 19/7/19 18/32/19 33/34/19 34/37/19
f 12/4/20 11/3/20 26/36/20 27/38/20
f 20/8/21 19/7/21 34/37/21 35/39/21
f 13/10/22 12/4/22 27/38/22 28/40/22
f 21/12/23 20/8/23 35/39/23 36/41/23
f 14/14/24 13/10/24 28/40/24 29/42/24
f 22/16/25 21/12/25 36/41/25 37/43/25
f 15/18/26 14/14/26 29/42/26 30/44/26
f 23/20/27 22/16/27 37/43/27 38/45/27
f 16/22/28 15/18/28 30/44/28 31/46/28
f 9/25/29 1/47/29 24/48/29
f 8/49/30 23/20/30 38/45/30
f 17/28/31 16/22/31 31/46/31 32/33/31
f 10/30/32 9/25/32 24/48/32 25/35/32
f 37/43/33 36/41/33 51/50/33 52/51/33
f 30/44/34 29/42/34 44/52/34 45/53/34
f 38/45/35 37/43/35 52/51/35 53/54/35
f 31/46/36 30/44/36 45/53/36 46/55/36
f 24/48/37 1/56/37 39/57/37
f 8/58/38 38/45/38 53/54/38
f 32/33/39 31/46/39 46/55/39 47/59/39
f 25/35/40 24/48/40 39/57/40 40/60/40
f 33/34/41 32/33/41 47/59/41 48/61/41
f 26/36/42 25/35/42 40/60/42 41/62/42
f 34/37/43 33/34/43 48/61/43 49/63/43
f 27/38/44 26/36/44 41/62/44 42/64/44
f 35/39/45 34/37/45 49/63/45 50/65/45
f 28/40/46 27/38/46 42/64/46 43/66/46
f 36/41/47 35/39/47 50/65/47 51/50/47
f 29/42/48 28/40/48 43/66/48 44/52/48
f 49/63/49 48/61/49 63/67/49 64/68/49
f 42/64/50 41/62/50 56/69/50 57/70/50
f 50/65/51 49/63/51 64/68/51 65/71/51
f 43/66/52 42/64/52 57/70/52 58/72/52
f 51/50/53 50/65/53 65/71/53 66/73/53
f 44/52/54 43/66/54 58/72/54 59/74/54
f 52/51/55 51/50/55 66/73/55 67/75/55
f 45/53/56 44/52/56 59/74/56 60/76/56
f 53/54/57 52/51/57 67/75/57 68/77/57
f 46/55/58 45/53/58 60/76/58 61/78/58
f 39/57/59 1/79/59 54/80/59
f 8/81/60 53/54/60 68/77/60
f 47/59/61 46/55/61 61/78/61 62/82/61
f 40/60/62 39/57/62 54/80/62 55/83/62
f 48/61/63 47/59/63 62/82/63 63/67/63
f 41/62/64 40/60/64 55/83/64 56/69/64
f 68/77/65 67/75/65 82/84/65 83/85/65
f 61/78/66 60/76/66 75/86/66 76/87/66
f 54/80/67 1/88/67 69/89/67
f 8/90/68 68/77/68 83/85/68
f 62/82/69 61/78/69 76/87/69 77/91/69
f 55/83/70 54/80/70 69/89/70 70/92/70
f 63/67/71 62/82/71 77/91/71 78/93/71
f 56/69/72 55/83/72 70/92/72 71/94/72
f 64/68/73 63/67/73 78/93/73 79/95/73
f 57/70/74 56/69/74 71/94/74 72/96/74
f 65/71/75 64/68/75 79/95/75 80/97/75
f 58/72/76 57/70/76 72/96/76 73/98/76
f 66/73/77 65/71/77 80/97/77 81/99/77
f 59/74/78 58/72/78 73/98/78 74/100/78
f 67/75/79 66/73/79 81/99/79 82/84/79
f 60/76/80 59/74/80 74/100/80 75/86/80
f 72/96/81 71/94/81 86/101/81 87/102/81
f 80/97/82 79/95/82 94/103/82 95/104/82
f 73/98/83 72/96/83 87/102/83 88/105/83
f 81/99/84 80/97/84 95/104/84 96/106/84
f 74/100/85 73/98/85 88/105/85 89/107/85
f 82/84/86 81/99/86 96/106/86 97/108/86
f 75/86/87 74/100/87 89/107/87 90/109/87
f 83/85/88 82/84/88 97/108/88 98/110/88
f 76/87/89 75/86/89 90/109/89 91/111/89
f 69/89/90 1/112/90 84/113/90
f 8/114/91 83/85/91 98/110/91
f 77/91/92 76/87/92 91/111/92 92/115/92
f 70/92/93 69/89/93 84/113/93 85/116/93
f 78/93/94 77/91/94 92/115/94 93/117/94
f 71/94/95 70/92/95 85/116/95 86/101/95
f 79/95/96 78/93/96 93/117/96 94/103/96
f 91/111/97 90/109/97 105/118/97 106/119/97
f 84/113/98 1/120/98 99/121/98
f 8/122/99 98/110/99 113/123/99
f 92/115/100 91/111/100 106/119/100 107/124/100
f 85/116/101 84/113/101 99/121/101 100/125/101
f 93/117/102 92/115/102 107/124/102 108/126/102
f 86/101/103 85/116/103 100/125/103 101/127/103
f 94/103/104 93/117/104 108/126/104 109/128/104
f 87/102/105 86/101/105 101/127/105 102/129/105
f 95/104/106 94/103/106 109/128/106 110/130/106
f 88/105/107 87/102/107 102/129/107 103/131/107
f 96/106/108 95/104/108 110/130/108 111/132/108
f 89/107/109 88/105/109 103/131/109 104/133/109
f 97/108/110 96/106/110 111/132/110 112/134/110
f 90/109/111 89/107/111 104/133/111 105/118/111
f 98/110/112 97/108/112 112/134/112 113/123/112
f 110/130/113 109/128/113 124/135/113 125/136/113
f 103/131/114 102/129/114 117/137/114 118/138/114
f 111/132/115 110/130/115 125/136/115 126/139/115
f 104/133/116 103/131/116 118/138/116 119/140/116
f 112/134/117 111/132/117 126/139/117 127/141/117
f 105/118/118 104/133/118 119/140/118 120/142/118
f 113/123/119 112/134/119 127/141/119 128/143/119
f 106/119/120 105/118/120 120/142/120 121/144/120
f 99/121/121 1/145/121 114/146/121
f 8/147/122 113/123/122 128/143/122
f 107/124/123 106/119/123 121/144/123 122/148/123
f 100/125/124 99/121/124 114/146/124 115/149/124
f 108/126/125 107/124/125 122/148/125 123/150/125
f 101/127/126 100/125/126 115/149/126 116/151/126
f 109/128/127 108/126/127 123/150/127 124/135/127
f 102/129/128 101/127/128 116/151/128 117/137/128
f 114/146/129 1/152/129 129/153/129
f 8/154/130 128/143/130 143/155/130
f 122/148/131 121/144/131 136/156/131 137/157/131
f 115/149/132 114/146/132 129/153/132 130/158/132
f 123/150/133 122/148/133 137/157/133 138/159/133
f 116/151/134 115/149/134 130/158/134 131/160/134
f 124/135/135 123/150/135 138/159/135 139/161/135
f 117/137/136 116/151/136 131/160/136 132/162/136
f 125/136/137 124/135/137 139/161/137 140/163/137
f 118/138/138 117/137/138 132/162/138 133/164/138
f 126/139/139 125/136/139 140/163/139 141/165/139
f 119/140/140 118/138/140 133/164/140 134/166/140
f 127/141/141 126/139/141 141/165/141 142/167/141
f 120/142/142 119/140/142 134/166/142 135/168/142
f 128/143/143 127/141/143 142/167/143 143/155/143
f 121/144/144 120/142/144 135/168/144 136/156/144
f 133/164/145 132/162/145 147/169/145 148/170/145
f 141/165/146 140/163/146 155/171/146 156/172/146
f 134/166/147 133/164/147 148/170/147 149/173/147
f 142/167/148 141/165/148 156/172/148 157/174/148
f 135/168/149 134/166/149 149/173/149 150/175/149
f 143/155/150 142/167/150 157/174/150 158/176/150
f 136/156/151 135/168/151 150/175/151 151/177/151
f 129/153/152 1/178/152 144/179/152
f 8/180/153 143/155/153 158/176/153
f 137/157/154 136/156/154 151/177/154 152/181/154
f 130/158/155 129/153/155 144/179/155 145/182/155
f 138/159/156 137/157/156 152/181/156 153/183/156
f 131/160/157 130/158/157 145/182/157 146/184/157
f 139/161/158 138/159/158 153/183/158 154/185/158
f 132/162/159 131/160/159 146/184/159 147/169/159
f 140/163/160 139/161/160 154/185/160 155/171/160
f 152/181/161 151/177/161 166/186/161 167/187/161
f 145/182/162 144/179/162 159/188/162 160/189/162
f 153/183/163 152/181/163 167/187/163 168/190/163
f 146/184/164 145/182/164 160/189/164 161/191/164
f 154/185/165 153/183/165 168/190/165 169/192/165
f 147/169/166 146/184/166 161/191/166 162/193/166
f 155/171/167 154/185/167 169/192/167 170/194/167
f 148/170/168 147/169/168 162/193/168 163/195/168
f 156/172/169 155/171/169 170/194/169 171/196/169
f 149/173/170 148/170/170 163/195/170 164/197/170
f 157/174/171 156/172/171 171/196/171 172/198/171
f 150/175/172 149/173/172 164/197/172 165/199/172
f 158/176/173 157/174/173 172/198/173 173/200/173
f 151/177/174 150/175/174 165/199/174 166/186/174
f 144/179/175 1/201/175 159/188/175
f 8/202/176 158/176/176 173/200/176
f 171/196/177 170/194/177 185/203/177 186/204/177
f 164/197/178 163/195/178 178/205/178 179/206/178
f 172/198/179 171/196/179 186/204/179 187/207/179
f 165/199/180 164/197/180 179/206/180 180/208/180
f 173/200/181 172/198/181 187/207/181 188/209/181
f 166/186/182 165/199/182 180/208/182 181/210/182
f 159/188/183 1/211/183 174/212/183
f 8/213/184 173/200/184 188/209/184
f 167/187/185 166/186/185 181/210/185 182/214/185
f 160/189/186 159/188/186 174/212/186 175/215/186
f 168/190/187 167/187/187 182/214/187 183/216/187
f 161/191/188 160/189/188 175/215/188 176/217/188
f 169/192/189 168/190/189 183/216/189 184/218/189
f 162/193/190 161/191/190 176/217/190 177/219/190
f 170/194/191 169/192/191 184/218/191 185/203/191
f 163/195/192 162/193/192 177/219/192 178/205/192
f 183/216/193 182/214/193 197/220/193 198/221/193
f 176/217/194 175/215/194 190/222/194 191/223/194
f 184/218/195 183/216/195 198/221/195 199/224/195
f 177/219/196 176/217/196 191/223/196 192/225/196
f 185/203/197 184/218/197 199/224/197 200/226/197
f 178/205/198 177/219/198 192/225/198 193/227/198
f 186/204/199 185/203/199 200/226/199 201/228/199
f 179/206/200 178/205/200 193/227/200 194/229/200
f 187/207/201 186/204/201 201/228/201 202/230/201
f 180/208/202 179/206/202 194/229/202 195/231/202
f 188/209/203 187/207/203 202/230/203 203/232/203
f 181/210/204 180/208/204 195/231/204 196/233/204
f 174/212/205 1/234/205 189/235/205
f 8/236/206 188/209/206 203/232/206
f 182/214/207 181/210/207 196/233/207 197/220/207
f 175/215/208 174/212/208 189/235/208 190/222/208
f 202/230/209 201/228/209 216/237/209 217/238/209
f 195/231/210 194/229/210 209/239/210 210/240/210
f 203/232/211 202/230/211 217/238/211 218/241/211
f 196/233/212 195/231/212 210/240/212 211/242/212
f 189/235/213 1/243/213 204/244/213
f 8/245/214 203/232/214 218/241/214
f 197/220/215 196/233/215 211/242/215 212/246/215
f 190/222/216 189/235/216 204/244/216 205/247/216
f 198/221/217 197/220/217 212/246/217 213/248/217
f 191/223/218 190/222/218 205/247/218 206/249/218
f 199/224/219 198/221/219 213/248/219 214/250/219
f 192/225/220 191/223/220 206/249/220 207/251/220
f 200/226/221 199/224/221 214/250/221 215/252/221
f 193/227/222 192/225/222 207/251/222 208/253/222
f 201/228/223 200/226/223 215/252/223 216/237/223
f 194/229/224 193/227/224 208/253/224 209/239/224
f 206/249/225 205/247/225 220/254/225 221/255/225
f 214/250/226 213/248/226 228/256/226 229/257/226
f 207/251/227 206/249/227 221/255/227 222/258/227
f 215/252/228 214/250/228 229/257/228 230/259/228
f 208/253/229 207/251/229 222/258/229 223/260/229
f 216/237/230 215/252/230 230/259/230 231/261/230
f 209/239/231 208/253/231 223/260/231 224/262/231
f 217/238/232 216/237/232 231/261/232 232/263/232
f 210/240/233 209/239/233 224/262/233 225/264/233
f 218/241/234 217/238/234 232/263/234 233/265/234
f 211/242/235 210/240/235 225/264/235 226/266/235
f 204/244/236 1/267/236 219/268/236
f 8/269/237 218/241/237 233/265/237
f 212/246/238 211/242/238 226/266/238 227/270/238
f 205/247/239 204/244/239 219/268/239 220/254/239
f 213/248/240 212/246/240 227/270/240 228/256/240
f 225/264/241 224/262/241 239/271/241 240/272/241
f 233/265/242 232/263/242 247/273/242 248/274/242
f 226/266/243 225/264/243 240/272/243 241/275/243
f 219/268/244 1/276/244 234/277/244
f 8/278/245 233/265/245 248/274/245
f 227/270/246 226/266/246 241/275/246 242/279/246
f 220/254/247 219/268/247 234/277/247 235/280/247
f 228/256/248 227/270/248 242/279/248 243/281/248
f 221/255/249 220/254/249 235/280/249 236/282/249
f 229/257/250 228/256/250 243/281/250 244/283/250
f 222/258/251 221/255/251 236/282/251 237/284/251
f 230/259/252 229/257/252 244/283/252 245/285/252
f 223/260/253 222/258/253 237/284/253 238/286/253
f 231/261/254 230/259/254 245/285/254 246/287/254
f 224/262/255 223/260/255 238/286/255 239/271/255
f 232/263/256 231/261/256 246/287/256 247/273/256
f 244/283/257 243/281/257 258/288/257 259/289/257
f 237/284/258 236/282/258 251/290/258 252/291/258
f 245/285/259 244/283/259 259/289/259 260/292/259
f 238/286/260 237/284/260 252/291/260 253/293/260
f 246/287/261 245/285/261 260/292/261 261/294/261
f 239/271/262 238/286/262 253/293/262 254/295/262
f 247/273/263 246/287/263 261/294/263 262/296/263
f 240/272/264 239/271/264 254/295/264 255/297/264
f 248/274/265 247/273/265 262/296/265 263/298/265
f 241/275/266 240/272/266 255/297/266 256/299/266
f 234/277/267 1/300/267 249/301/267
f 8/302/268 248/274/268 263/298/268
f 242/279/269 241/275/269 256/299/269 257/303/269
f 235/280/270 234/277/270 249/301/270 250/304/270
f 243/281/271 242/279/271 257/303/271 258/288/271
f 236/282/272 235/280/272 250/304/272 251/290/272
f 263/298/273 262/296/273 277/305/273 278/306/273
f 256/299/274 255/297/274 270/307/274 271/308/274
f 249/301/275 1/309/275 264/310/275
f 8/311/276 263/298/276 278/306/276
f 257/303/277 256/299/277 271/308/277 272/312/277
f 250/304/278 249/301/278 264/310/278 265/313/278
f 258/288/279 257/303/279 272/312/279 273/314/279
f 251/290/280 250/304/280 265/313/280 266/315/280
f 259/289/281 258/288/281 273/314/281 274/316/281
f 252/291/282 251/290/282 266/315/282 267/317/282
f 260/292/283 259/289/283 274/316/283 275/318/283
f 253/293/284 252/291/284 267/317/284 268/319/284
f 261/294/285 260/292/285 275/318/285 276/320/285
f 254/295/286 253/293/286 268/319/286 269/321/286
f 262/296/287 261/294/287 276/320/287 277/305/287
f 255/297/288 254/295/288 269/321/288 270/307/288
f 267/317/289 266/315/289 281/322/289 282/323/289
f 275/318/290 274/316/290 289/324/290 290/325/290
f 268/319/291 267/317/291 282/323/291 283/326/291
f 276/320/292 275/318/292 290/325/292 291/327/292
f 269/321/293 268/319/293 283/326/293 284/328/293
f 277/305/294 276/320/294 291/327/294 292/329/294
f 270/307/295 269/321/295 284/328/295 285/330/295
f 278/306/296 277/305/296 292/329/296 293/331/296
f 271/308/297 270/307/297 285/330/297 286/332/297
f 264/310/298 1/333/298 279/334/298
f 8/335/299 278/306/299 293/331/299
f 272/312/300 271/308/300 286/332/300 287/336/300
f 265/313/301 264/310/301 279/334/301 280/337/301
f 273/314/302 272/312/302 287/336/302 288/338/302
f 266/315/303 265/313/303 280/337/303 281/322/303
f 274/316/304 273/314/304 288/338/304 289/324/304
f 286/332/305 285/330/305 300/339/305 301/340/305
f 279/334/306 1/341/306 294/342/306
f 8/343/307 293/331/307 308/344/307
f 287/336/308 286/332/308 301/340/308 302/345/308
f 280/337/309 279/334/309 294/342/309 295/346/309
f 288/338/310 287/336/310 302/345/310 303/347/310
f 281/322/311 280/337/311 295/346/311 296/348/311
f 289/324/312 288/338/312 303/347/312 304/349/312
f 282/323/313 281/322/313 296/348/313 297/350/313
f 290/325/314 289/324/314 304/349/314 305/351/314
f 283/326/315 282/323/315 297/350/315 298/352/315
f 291/327/316 290/325/316 305/351/316 306/353/316
f 284/328/317 283/326/317 298/352/317 299/354/317
f 292/329/318 291/327/318 306/353/318 307/355/318
f 285/330/319 284/328/319 299/354/319 300/339/319
f 293/331/320 292/329/320 307/355/320 308/344/320
f 305/351/321 304/349/321 319/356/321 320/357/321
f 298/352/322 297/350/322 312/358/322 313/359/322
f 306/353/323 305/351/323 320/357/323 321/360/323
f 299/354/324 298/352/324 313/359/324 314/361/324
f 307/355/325 306/353/325 321/360/325 322/362/325
f 300/339/326 299/354/326 314/361/326 315/363/326
f 308/344/327 307/355/327 322/362/327 323/364/327
f 301/340/328 300/339/328 315/363/328 316/365/328
f 294/342/329 1/366/329 309/367/329
f 8/368/330 308/344/330 323/364/330
f 302/345/331 301/340/331 316/365/331 317/369/331
f 295/346/332 294/342/332 309/367/332 310/370/332
f 303/347/333 302/345/333 317/369/333 318/371/333
f 296/348/334 295/346/334 310/370/334 311/372/334
f 304/349/335 303/347/335 318/371/335 319/356/335
f 297/350/336 296/348/336 311/372/336 312/358/336
f 8/373/337 323/364/337 338/374/337
f 317/369/338 316/365/338 331/375/338 332/376/338
f 310/370/339 309/367/339 324/377/339 325/378/339
f 318/371/340 317/369/340 332/376/340 333/379/340
f 311/372/341 310/370/341 325/378/341 326/380/341
f 319/356/342 318/371/342 333/379/342 334/381/342
f 312/358/343 311/372/343 326/380/343 327/382/343
f 320/357/344 319/356/344 334/381/344 335/383/344
f 313/359/345 312/358/345 327/382/345 328/384/345
f 321/360/346 320/357/346 335/383/346 336/385/346
f 314/361/347 313/359/347 328/384/347 329/386/347
f 322/362/348 321/360/348 336/385/348 337/387/348
f 315/363/349 314/361/349 329/386/349 330/388/349
f 323/364/350 322/362/350 337/387/350 338/374/350
f 316/365/351 315/363/351 330/388/351 331/375/351
f 309/367/352 1/389/352 324/377/352
f 336/385/353 335/383/353 350/390/353 351/391/353
f 329/386/354 328/384/354 343/392/354 344/393/354
f 337/387/355 336/385/355 351/391/355 352/394/355
f 330/388/356 329/386/356 344/393/356 345/395/356
f 338/374/357 337/387/357 352/394/357 353/396/357
f 331/375/358 330/388/358 345/395/358 346/397/358
f 324/377/359 1/398/359 339/399/359
f 8/400/360 338/374/360 353/396/360
f 332/376/361 331/375/361 346/397/361 347/401/361
f 325/378/362 324/377/362 339/399/362 340/402/362
f 333/379/363 332/376/363 347/401/363 348/403/363
f 326/380/364 325/378/364 340/402/364 341/404/364
f 334/381/365 333/379/365 348/403/365 349/405/365
f 327/382/366 326/380/366 341/404/366 342/406/366
f 335/383/367 334/381/367 349/405/367 350/390/367
f 328/384/368 327/382/368 342/406/368 343/392/368
f 340/402/369 339/399/369 354/407/369 355/408/369
f 348/403/370 347/401/370 362/409/370 363/410/370
f 341/404/371 340/402/371 355/408/371 356/411/371
f 349/405/372 348/403/372 363/410/372 364/412/372
f 342/406/373 341/404/373 356/411/373 357/413/373
f 350/390/374 349/405/374 364/412/374 365/414/374
f 343/392/375 342/406/375 357/413/375 358/415/375
f 351/391/376 350/390/376 365/414/376 366/416/376
f 344/393/377 343/392/377 358/415/377 359/417/377
f 352/394/378 351/391/378 366/416/378 367/418/378
f 345/395/379 344/393/379 359/417/379 360/419/379
f 353/396/380 352/394/380 367/418/380 368/420/380
f 346/397/381 345/395/381 360/419/381 361/421/381
f 339/399/382 1/422/382 354/407/382
f 8/423/383 353/396/383 368/420/383
f 347/401/384 346/397/384 361/421/384 362/409/384
f 359/424/385 358/425/385 373/426/385 374/427/385
f 367/428/386 366/429/386 381/430/386 382/431/386
f 360/432/387 359/424/387 374/427/387 375/433/387
f 368/434/388 367/428/388 382/431/388 383/435/388
f 361/436/389 360/432/389 375/433/389 376/437/389
f 354/438/390 1/439/390 369/440/390
f 8/441/391 368/434/391 383/435/391
f 362/442/392 361/436/392 376/437/392 377/443/392
f 355/444/393 354/438/393 369/440/393 370/445/393
f 363/446/394 362/442/394 377/443/394 378/447/394
f 356/448/395 355/444/395 370/445/395 371/449/395
f 364/450/396 363/446/396 378/447/396 379/451/396
f 357/452/397 356/448/397 371/449/397 372/453/397
f 365/454/398 364/450/398 379/451/398 380/455/398
f 358/425/399 357/452/399 372/453/399 373/426/399
f 366/429/400 365/454/400 380/455/400 381/430/400
f 378/447/401 377/443/401 392/456/401 393/457/401
f 371/449/402 370/445/402 385/458/402 386/459/402
f 379/451/403 378/447/403 393/457/403 394/460/403
f 372/453/404 371/449/404 386/459/404 387/461/404
f 380/455/405 379/451/405 394/460/405 395/462/405
f 373/426/406 372/453/406 387/461/406 388/463/406
f 381/430/407 380/455/407 395/462/407 396/464/407
f 374/427/408 373/426/408 388/463/408 389/465/408
f 382/431/409 381/430/409 396/464/409 397/466/409
f 375/433/410 374/427/410 389/465/410 390/467/410
f 383/435/411 382/431/411 397/466/411 398/468/411
f 376/437/412 375/433/412 390/467/412 391/469/412
f 369/440/413 1/470/413 384/471/413
f 8/472/414 383/435/414 398/468/414
f 377/443/415 376/437/415 391/469/415 392/456/415
f 370/445/416 369/440/416 384/471/416 385/458/416
f 397/466/417 396/464/417 411/473/417 412/474/417
f 390/467/418 389/465/418 404/475/418 405/476/418
f 398/468/419 397/466/419 412/474/419 413/477/419
f 391/469/420 390/467/420 405/476/420 406/478/420
f 384/471/421 1/479/421 399/480/421
f 8/481/422 398/468/422 413/477/422
f 392/456/423 391/469/423 406/478/423 407/482/423
f 385/458/424 384/471/424 399/480/424 400/483/424
f 393/457/425 392/456/425 407/482/425 408/484/425
f 386/459/426 385/458/426 400/483/426 401/485/426
f 394/460/427 393/457/427 408/484/427 409/486/427
f 387/461/428 386/459/428 401/485/428 402/487/428
f 395/462/429 394/460/429 409/486/429 410/488/429
f 388/463/430 387/461/430 402/487/430 403/489/430
f 396/464/431 395/462/431 410/488/431 411/473/431
f 389/465/432 388/463/432 403/489/432 404/475/432
f 401/485/433 400/483/433 415/490/433 416/491/433
f 409/486/434 408/484/434 423/492/434 424/493/434
f 402/487/435 401/485/435 416/491/435 417/494/435
f 410/488/436 409/486/436 424/493/436 425/495/436
f 403/489/437 402/487/437 417/494/437 418/496/437
f 411/473/438 410/488/438 425/495/438 426/497/438
f 404/475/439 403/489/439 418/496/439 419/498/439
f 412/474/440 411/473/440 426/497/440 427/499/440
f 405/476/441 404/475/441 419/498/441 420/500/441
f 413/477/442 412/474/442 427/499/442 428/501/442
f 406/478/443 405/476/443 420/500/443 421/502/443
f 399/480/444 1/503/444 414/504/444
f 8/505/445 413/477/445 428/501/445
f 407/482/446 406/478/446 421/502/446 422/506/446
f 400/483/447 399/480/447 414/504/447 415/490/447
f 408/484/448 407/482/448 422/506/448 423/492/448
f 420/500/449 419/498/449 434/507/449 435/508/449
f 428/501/450 427/499/450 442/509/450 443/510/450
f 421/502/451 420/500/451 435/508/451 436/511/451
f 414/504/452 1/512/452 429/513/452
f 8/514/453 428/501/453 443/510/453
f 422/506/454 421/502/454 436/511/454 437/515/454
f 415/490/455 414/504/455 429/513/455 430/516/455
f 423/492/456 422/506/456 437/515/456 438/517/456
f 416/491/457 415/490/457 430/516/457 431/518/457
f 424/493/458 423/492/458 438/517/458 439/519/458
f 417/494/459 416/491/459 431/518/459 432/520/459
f 425/495/460 424/493/460 439/519/460 440/521/460
f 418/496/461 417/494/461 432/520/461 433/522/461
f 426/497/462 425/495/462 440/521/462 441/523/462
f 419/498/463 418/496/463 433/522/463 434/507/463
f 427/499/464 426/497/464 441/523/464 442/509/464
f 439/519/465 438/517/465 453/524/465 454/525/465
f 432/520/466 431/518/466 446/526/466 447/527/466
f 440/521/467 439/519/467 454/525/467 455/528/467
f 433/522/468 432/520/468 447/527/468 448/529/468
f 441/523/469 440/521/469 455/528/469 456/530/469
f 434/507/470 433/522/470 448/529/470 449/531/470
f 442/509/471 441/523/471 456/530/471 457/532/471
f 435/508/472 434/507/472 449/531/472 450/533/472
f 443/510/473 442/509/473 457/532/473 458/534/473
f 436/511/474 435/508/474 450/533/474 451/535/474
f 429/513/475 1/536/475 444/537/475
f 8/538/476 443/510/476 458/534/476
f 437/515/477 436/511/477 451/535/477 452/539/477
f 430/516/478 429/513/478 444/537/478 445/540/478
f 438/517/479 437/515/479 452/539/479 453/524/479
f 431/518/480 430/516/480 445/540/480 446/526/480
f 458/534/481 457/532/481 472/541/481 473/542/481
f 451/535/482 450/533/482 465/543/482 466/544/482
f 444/537/483 1/545/483 459/546/483
f 8/547/484 458/534/484 473/542/484
f 452/539/485 451/535/485 466/544/485 467/548/485
f 445/540/486 444/537/486 459/546/486 460/549/486
f 453/524/487 452/539/487 467/548/487 468/550/487
f 446/526/488 445/540/488 460/549/488 461/551/488
f 454/525/489 453/524/489 468/550/489 469/552/489
f 447/527/490 446/526/490 461/551/490 462/553/490
f 455/528/491 454/525/491 469/552/491 470/554/491
f 448/529/492 447/527/492 462/553/492 463/555/492
f 456/530/493 455/528/493 470/554/493 471/556/493
f 449/531/494 448/529/494 463/555/494 464/557/494
f 457/532/495 456/530/495 471/556/495 472/541/495
f 450/533/496 449/531/496 464/557/496 465/543/496
f 470/554/497 469/552/497 7/6/497 479/5/497
f 463/555/498 462/553/498 476/1/498 3/9/498
f 471/556/499 470/554/499 479/5/499 480/11/499
f 464/557/500 463/555/500 3/9/500 477/13/500
f 472/541/501 471/556/501 480/11/501 481/15/501
f 465/543/502 464/557/502 477/13/502 4/17/502
f 473/542/503 472/541/503 481/15/503 482/19/503
f 466/544/504 465/543/504 4/17/504 5/21/504
f 459/546/505 1/558/505 474/23/505
f 8/559/506 473/542/506 482/19/506
f 467/548/507 466/544/507 5/21/507 6/27/507
f 460/549/508 459/546/508 474/23/508 475/29/508
f 468/550/509 467/548/509 6/27/509 478/31/509
f 461/551/510 460/549/510 475/29/510 2/2/510
f 469/552/511 468/550/511 478/31/511 7/6/511
f 462/553/512 461/551/512 2/2/512 476/1/512
f 483/560/513 484/561/513 485/562/513 486/563/513 487/564/513 488/565/513 489/566/513 490/567/513 491/568/513 492/569/513 493/570/513 494/571/513 495/572/513 496/573/513 497/574/513 498/575/513 499/576/513 500/577/513 501/578/513 502/579/513 503/580/513 504/581/513 505/582/513 506/583/513 507/584/513 508/585/513 509/586/513 510/587/513 511/588/513 512/589/513 513/590/513 514/591/513
usemtl Material.004
f 518/592/514 516/593/514 515/594/514 517/595/514
f 520/596/515 518/592/515 517/595/515 519/597/515
f 522/598/516 520/596/516 519/597/516 521/599/516
f 524/600/517 522/598/517 521/599/517 523/601/517
f 526/602/518 524/600/518 523/601/518 525/603/518
f 528/604/519 526/602/519 525/603/519 527/605/519
f 530/606/520 528/604/520 527/605/520 529/607/520
f 532/608/521 530/606/521 529/607/521 531/609/521
f 534/610/522 532/608/522 531/609/522 533/611/522
f 536/612/523 534/610/523 533/611/523 535/613/523
f 538/614/524 536/612/524 535/613/524 537/615/524
f 540/616/525 538/614/525 537/615/525 539/617/525
f 542/618/526 540/616/526 539/617/526 541/619/526
f 544/620/527 542/618/527 541/619/527 543/621/527
f 546/622/528 544/620/528 543/621/528 545/623/528
f 548/624/529 546/622/529 545/623/529 547/625/529
f 550/626/530 548/624/530 547/625/530 549/627/530
f 552/628/531 550/626/531 549/627/531 551/629/531
f 554/630/532 552/628/532 551/629/532 553/631/532
f 556/632/533 554/630/533 553/631/533 555/633/533
f 558/634/534 556/632/534 555/633/534 557/635/534
f 560/636/535 558/634/535 557/635/535 559/637/535
f 562/638/536 560/636/536 559/637/536 561/639/536
f 564/640/537 562/638/537 561/639/537 563/641/537
f 566/642/538 564/640/538 563/641/538 565/643/538
f 568/644/539 566/642/539 565/643/539 567/645/539
f 570/646/540 568/644/540 567/645/540 569/647/540
f 572/648/541 570/646/541 569/647/541 571/649/541
f 574/650/542 572/648/542 571/649/542 573/651/542
f 576/652/543 574/650/543 573/651/543 575/653/543
f 578/654/544 576/652/544 575/653/544 577/655/544
f 516/593/545 578/654/545 577/655/545 515/594/545
f 517/595/546 515/594/546 577/655/546 575/653/546 573/651/546 571/649/546 569/647/546 567/645/546 565/643/546 563/641/546 561/639/546 559/637/546 557/635/546 555/633/546 553/631/546 551/629/546 549/627/546 547/625/546 545/623/546 543/621/546 541/619/546 539/617/546 537/615/546 535/613/546 533/611/546 531/609/546 529/607/546 527/605/546 525/603/546 523/601/546 521/599/546 519/597/546
f 483/436/547 516/656/547 518/657/547 484/658/547
f 514/659/548 578/660/548 516/661/548 483/421/548
f 484/658/549 518/657/549 520/662/549 485/663/549
f 485/663/550 520/662/550 522/664/550 486/665/550
f 486/665/551 522/664/551 524/666/551 487/667/551
f 487/667/552 524/666/552 526/668/552 488/669/552
f 488/669/553 526/668/553 528/670/553 489/671/553
f 489/671/554 528/670/554 530/672/554 490/673/554
f 490/673/555 530/672/555 532/674/555 491/21/555
f 491/21/556 532/674/556 534/675/556 492/22/556
f 492/22/557 534/675/557 536/676/557 493/46/557
f 493/46/558 536/676/558 538/677/558 494/55/558
f 494/55/559 538/677/559 540/678/559 495/78/559
f 495/78/560 540/678/560 542/679/560 496/87/560
f 496/87/561 542/679/561 544/680/561 497/111/561
f 497/111/562 544/680/562 546/681/562 498/119/562
f 498/119/563 546/681/563 548/682/563 499/683/563
f 499/683/564 548/682/564 550/684/564 500/685/564
f 500/685/565 550/684/565 552/686/565 501/687/565
f 501/687/566 552/686/566 554/688/566 502/689/566
f 502/689/567 554/688/567 556/690/567 503/691/567
f 503/691/568 556/690/568 558/692/568 504/693/568
f 504/693/569 558/692/569 560/694/569 505/695/569
f 505/695/570 560/694/570 562/696/570 506/697/570
f 506/697/571 562/696/571 564/698/571 507/699/571
f 507/699/572 564/698/572 566/700/572 508/701/572
f 508/701/573 566/700/573 568/702/573 509/703/573
f 509/703/574 568/702/574 570/704/574 510/705/574
f 510/705/575 570/704/575 572/706/575 511/707/575
f 511/707/576 572/706/576 574/708/576 512/709/576
f 512/709/577 574/708/577 576/710/577 513/711/577
f 513/711/578 576/710/578 578/660/578 514/659/578
o Cylinder.001
v 0.000000 0.149658 -0.023543
v 0.000000 0.864301 -0.023543
v 0.004593 0.149658 -0.023091
v 0.004593 0.864301 -0.023091
v 0.009010 0.149658 -0.021751
v 0.009010 0.864301 -0.021751
v 0.013080 0.149658 -0.019576
v 0.013080 0.864301 -0.019576
v 0.016648 0.149658 -0.016648
v 0.016648 0.864301 -0.016648
v 0.019576 0.149658 -0.013080
v 0.019576 0.864301 -0.013080
v 0.021751 0.149658 -0.009010
v 0.021751 0.864301 -0.009010
v 0.023091 0.149658 -0.004593
v 0.023091 0.864301 -0.004593
v 0.023543 0.149658 0.000000
v 0.023543 0.864301 0.000000
v 0.023091 0.149658 0.004593
v 0.023091 0.864301 0.004593
v 0.021751 0.149658 0.009010
v 0.021751 0.864301 0.009010
v 0.019576 0.149658 0.013080
v 0.019576 0.864301 0.013080
v 0.016648 0.149658 0.016648
v 0.016648 0.864301 0.016648
v 0.013080 0.149658 0.019576
v 0.013080 0.864301 0.019576
v 0.009010 0.149658 0.021751
v 0.009010 0.864301 0.021751
v 0.004593 0.149658 0.023091
v 0.004593 0.864301 0.023091
v 0.000000 0.149658 0.023543
v 0.000000 0.864301 0.023543
v -0.004593 0.149658 0.023091
v -0.004593 0.864301 0.023091
v -0.009010 0.149658 0.021751
v -0.009010 0.864301 0.021751
v -0.013080 0.149658 0.019576
v -0.013080 0.864301 0.019576
v -0.016648 0.149658 0.016648
v -0.016648 0.864301 0.016648
v -0.019576 0.149658 0.013080
v -0.019576 0.864301 0.013080
v -0.021751 0.149658 0.009010
v -0.021751 0.864301 0.009010
v -0.023091 0.149658 0.004593
v -0.023091 0.864301 0.004593
v -0.023543 0.149658 0.000000
v -0.023543 0.864301 0.000000
v -0.023091 0.149658 -0.004593
v -0.023091 0.864301 -0.004593
v -0.021751 0.149658 -0.009010
v -0.021751 0.864301 -0.009010
v -0.019576 0.149658 -0.013080
v -0.019576 0.864301 -0.013080
v -0.016648 0.149658 -0.016648
v -0.016648 0.864301 -0.016648
v -0.013080 0.149658 -0.019576
v -0.013080 0.864301 -0.019576
v -0.009010 0.149658 -0.021751
v -0.009010 0.864301 -0.021751
v -0.004593 0.149658 -0.023091
v -0.004593 0.864301 -0.023091
vn 0.0980 -0.0000 -0.9952
vn 0.2903 -0.0000 -0.9569
vn 0.4714 -0.0000 -0.8819
vn 0.6344 -0.0000 -0.7730
vn 0.7730 -0.0000 -0.6344
vn 0.8819 -0.0000 -0.4714
vn 0.9569 -0.0000 -0.2903
vn 0.9952 -0.0000 -0.0980
vn 0.9952 -0.0000 0.0980
vn 0.9569 -0.0000 0.2903
vn 0.8819 -0.0000 0.4714
vn 0.7730 -0.0000 0.6344
vn 0.6344 -0.0000 0.7730
vn 0.4714 -0.0000 0.8819
vn 0.2903 -0.0000 0.9569
vn 0.0980 -0.0000 0.9952
vn -0.0980 -0.0000 0.9952
vn -0.2903 -0.0000 0.9569
vn -0.4714 -0.0000 0.8819
vn -0.6344 -0.0000 0.7730
vn -0.7730 -0.0000 0.6344
vn -0.8819 -0.0000 0.4714
vn -0.9569 -0.0000 0.2903
vn -0.9952 -0.0000 0.0980
vn -0.9952 -0.0000 -0.0980
vn -0.9569 -0.0000 -0.2903
vn -0.8819 -0.0000 -0.4714
vn -0.7730 -0.0000 -0.6344
vn -0.6344 -0.0000 -0.7730
vn -0.4714 -0.0000 -0.8819
vn -0.0000 1.0000 -0.0000
vn -0.2903 -0.0000 -0.9569
vn -0.0980 -0.0000 -0.9952
vn -0.0000 -1.0000 -0.0000
vt 1.000000 0.500000
vt 1.000000 1.000000
vt 0.968750 1.000000
vt 0.968750 0.500000
vt 0.937500 1.000000
vt 0.937500 0.500000
vt 0.906250 1.000000
vt 0.906250 0.500000
vt 0.875000 1.000000
vt 0.875000 0.500000
vt 0.843750 1.000000
vt 0.843750 0.500000
vt 0.812500 1.000000
vt 0.812500 0.500000
vt 0.781250 1.000000
vt 0.781250 0.500000
vt 0.750000 1.000000
vt 0.750000 0.500000
vt 0.718750 1.000000
vt 0.718750 0.500000
vt 0.687500 1.000000
vt 0.687500 0.500000
vt 0.656250 1.000000
vt 0.656250 0.500000
vt 0.625000 1.000000
vt 0.625000 0.500000
vt 0.593750 1.000000
vt 0.593750 0.500000
vt 0.562500 1.000000
vt 0.562500 0.500000
vt 0.531250 1.000000
vt 0.531250 0.500000
vt 0.500000 1.000000
vt 0.500000 0.500000
vt 0.468750 1.000000
vt 0.468750 0.500000
vt 0.437500 1.000000
vt 0.437500 0.500000
vt 0.406250 1.000000
vt 0.406250 0.500000
vt 0.375000 1.000000
vt 0.375000 0.500000
vt 0.343750 1.000000
vt 0.343750 0.500000
vt 0.312500 1.000000
vt 0.312500 0.500000
vt 0.281250 1.000000
vt 0.281250 0.500000
vt 0.250000 1.000000
vt 0.250000 0.500000
vt 0.218750 1.000000
vt 0.218750 0.500000
vt 0.187500 1.000000
vt 0.187500 0.500000
vt 0.156250 1.000000
vt 0.156250 0.500000
vt 0.125000 1.000000
vt 0.125000 0.500000
vt 0.093750 1.000000
vt 0.093750 0.500000
vt 0.062500 1.000000
vt 0.062500 0.500000
vt 0.296822 0.485388
vt 0.250000 0.490000
vt 0.203178 0.485388
vt 0.158156 0.471731
vt 0.116663 0.449553
vt 0.080294 0.419706
vt 0.050447 0.383337
vt 0.028269 0.341844
vt 0.014612 0.296822
vt 0.010000 0.250000
vt 0.014612 0.203178
vt 0.028269 0.158156
vt 0.050447 0.116663
vt 0.080294 0.080294
vt 0.116663 0.050447
vt 0.158156 0.028269
vt 0.203178 0.014612
vt 0.250000 0.010000
vt 0.296822 0.014612
vt 0.341844 0.028269
vt 0.383337 0.050447
vt 0.419706 0.080294
vt 0.449553 0.116663
vt 0.471731 0.158156
vt 0.485388 0.203178
vt 0.490000 0.250000
vt 0.485388 0.296822
vt 0.471731 0.341844
vt 0.449553 0.383337
vt 0.419706 0.419706
vt 0.383337 0.449553
vt 0.341844 0.471731
vt 0.031250 1.000000
vt 0.031250 0.500000
vt 0.000000 1.000000
vt 0.000000 0.500000
vt 0.750000 0.490000
vt 0.796822 0.485388
vt 0.841844 0.471731
vt 0.883337 0.449553
vt 0.919706 0.419706
vt 0.949553 0.383337
vt 0.971731 0.341844
vt 0.985388 0.296822
vt 0.990000 0.250000
vt 0.985388 0.203178
vt 0.971731 0.158156
vt 0.949553 0.116663
vt 0.919706 0.080294
vt 0.883337 0.050447
vt 0.841844 0.028269
vt 0.796822 0.014612
vt 0.750000 0.010000
vt 0.703178 0.014612
vt 0.658156 0.028269
vt 0.616663 0.050447
vt 0.580294 0.080294
vt 0.550447 0.116663
vt 0.528269 0.158156
vt 0.514612 0.203178
vt 0.510000 0.250000
vt 0.514612 0.296822
vt 0.528269 0.341844
vt 0.550447 0.383337
vt 0.580294 0.419706
vt 0.616663 0.449553
vt 0.658156 0.471731
vt 0.703178 0.485388
s 0
usemtl Material.001
f 579/712/579 580/713/579 582/714/579 581/715/579
f 581/715/580 582/714/580 584/716/580 583/717/580
f 583/717/581 584/716/581 586/718/581 585/719/581
f 585/719/582 586/718/582 588/720/582 587/721/582
f 587/721/583 588/720/583 590/722/583 589/723/583
f 589/723/584 590/722/584 592/724/584 591/725/584
f 591/725/585 592/724/585 594/726/585 593/727/585
f 593/727/586 594/726/586 596/728/586 595/729/586
f 595/729/587 596/728/587 598/730/587 597/731/587
f 597/731/588 598/730/588 600/732/588 599/733/588
f 599/733/589 600/732/589 602/734/589 601/735/589
f 601/735/590 602/734/590 604/736/590 603/737/590
f 603/737/591 604/736/591 606/738/591 605/739/591
f 605/739/592 606/738/592 608/740/592 607/741/592
f 607/741/593 608/740/593 610/742/593 609/743/593
f 609/743/594 610/742/594 612/744/594 611/745/594
f 611/745/595 612/744/595 614/746/595 613/747/595
f 613/747/596 614/746/596 616/748/596 615/749/596
f 615/749/597 616/748/597 618/750/597 617/751/597
f 617/751/598 618/750/598 620/752/598 619/753/598
f 619/753/599 620/752/599 622/754/599 621/755/599
f 621/755/600 622/754/600 624/756/600 623/757/600
f 623/757/601 624/756/601 626/758/601 625/759/601
f 625/759/602 626/758/602 628/760/602 627/761/602
f 627/761/603 628/760/603 630/762/603 629/763/603
f 629/763/604 630/762/604 632/764/604 631/765/604
f 631/765/605 632/764/605 634/766/605 633/767/605
f 633/767/606 634/766/606 636/768/606 635/769/606
f 635/769/607 636/768/607 638/770/607 637/771/607
f 637/771/608 638/770/608 640/772/608 639/773/608
f 582/774/609 580/775/609 642/776/609 640/777/609 638/778/609 636/779/609 634/780/609 632/781/609 630/782/609 628/783/609 626/784/609 624/785/609 622/786/609 620/787/609 618/788/609 616/789/609 614/790/609 612/791/609 610/792/609 608/793/609 606/794/609 604/795/609 602/796/609 600/797/609 598/798/609 596/799/609 594/800/609 592/801/609 590/802/609 588/803/609 586/804/609 584/805/609
f 639/773/610 640/772/610 642/806/610 641/807/610
f 641/807/611 642/806/611 580/808/611 579/809/611
f 579/810/612 581/811/612 583/812/612 585/813/612 587/814/612 589/815/612 591/816/612 593/817/612 595/818/612 597/819/612 599/820/612 601/821/612 603/822/612 605/823/612 607/824/612 609/825/612 611/826/612 613/827/612 615/828/612 617/829/612 619/830/612 621/831/612 623/832/612 625/833/612 627/834/612 629/835/612 631/836/612 633/837/612 635/838/612 637/839/612 639/840/612 641/841/612
