# Blender 5.2.2 LTS
# www.blender.org
mtllib Monitor2.mtl
o Cube
v 0.183174 1.367852 -0.172464
v 0.209813 1.448977 -0.025021
v 0.183174 1.367852 0.122421
v 0.156534 1.286728 -0.025021
v 0.209813 1.448977 0.122421
v 0.156534 1.286728 0.122421
v 0.209813 1.448977 -0.172464
v 0.156534 1.286728 -0.172464
v 0.183174 1.367853 -1.355072
v 0.423481 2.099660 -0.025021
v 0.183174 1.367853 1.305030
v -0.057134 0.636046 -0.025021
v 0.423481 2.099660 1.305030
v -0.057134 0.636046 1.305030
v 0.423481 2.099660 -1.355072
v -0.057134 0.636046 -1.355072
v 0.425512 1.288275 -1.265371
v 0.665819 2.020082 -0.025021
v 0.425512 1.288275 1.305030
v 0.185204 0.556468 -0.025021
v 0.637834 1.934858 1.215329
v 0.213190 0.641691 1.215329
v 0.637834 1.934858 -1.265372
v 0.213190 0.641691 -1.265372
v 0.637834 1.934858 -0.025021
v 0.665819 2.020082 1.305030
v 0.425512 1.288275 1.215329
v 0.213190 0.641691 -0.025021
v 0.185204 0.556468 1.305030
v 0.665819 2.020082 -1.355072
v 0.425512 1.288275 -1.355072
v 0.185204 0.556468 -1.355072
v 0.346283 1.314292 -1.265371
v 0.346283 1.314292 -0.025021
v 0.558605 1.960875 -0.025021
v 0.346283 1.314292 1.215329
v 0.133961 0.667708 -0.025021
v 0.558605 1.960875 1.215329
v 0.133961 0.667708 1.215329
v 0.558605 1.960875 -1.265372
v 0.133961 0.667708 -1.265372
v -0.403056 1.647460 -0.025021
v -0.403056 1.647460 0.122421
v -0.408897 1.562274 0.122421
v -0.414737 1.477088 -0.025021
v -0.414737 1.477088 0.122421
v -0.403056 1.647460 -0.172464
v -0.408897 1.562274 -0.172464
v -0.414737 1.477088 -0.172464
v -1.189193 1.701358 -0.025021
v -1.189193 1.701358 0.122421
v -1.195033 1.616172 0.122421
v -1.200873 1.530986 -0.025021
v -1.200873 1.530986 0.122421
v -1.189193 1.701358 -0.172464
v -1.195033 1.616172 -0.172464
v -1.200873 1.530986 -0.172464
vn -0.9501 0.3120 -0.0000
vn -0.0000 -0.0000 1.0000
vn -0.0000 -0.0000 -1.0000
vn -0.3120 -0.9501 -0.0000
vn 0.3120 0.9501 -0.0000
vn 0.9501 -0.3120 -0.0000
vn -0.3161 -0.9487 -0.0000
vn 0.0684 0.9977 -0.0000
vn 0.3081 0.9514 -0.0000
vn -0.9977 0.0684 -0.0000
vn -0.0684 -0.9977 -0.0000
vt 0.781250 0.593750
vt 0.781250 0.625000
vt 0.718750 0.625000
vt 0.718750 0.593750
vt 0.781250 0.656250
vt 0.750000 0.656250
vt 0.718750 0.656250
vt 0.750000 0.593750
vt 0.750000 0.595858
vt 0.777611 0.595858
vt 0.722389 0.595858
vt 0.777611 0.625000
vt 0.777611 0.654142
vt 0.722389 0.654142
vt 0.722389 0.625000
vt 0.750000 0.654142
vt 0.750000 0.625000
s 0
usemtl Material.001
f 7/1/1 2/2/1 10/2/1 15/1/1
f 4/3/1 8/4/1 16/4/1 12/3/1
f 5/5/1 3/6/1 11/6/1 13/5/1
f 3/6/1 6/7/1 14/7/1 11/6/1
f 13/5/2 11/6/2 19/6/2 26/5/2
f 11/6/2 14/7/2 29/7/2 19/6/2
f 9/8/3 15/1/3 30/1/3 31/8/3
f 16/4/3 9/8/3 31/8/3 32/4/3
f 6/7/1 4/3/1 12/3/1 14/7/1
f 2/2/1 5/5/1 13/5/1 10/2/1
f 8/4/1 1/8/1 9/8/1 16/4/1
f 1/8/1 7/1/1 15/1/1 9/8/1
f 17/9/2 23/10/2 40/10/2 33/9/2
f 24/11/2 17/9/2 33/9/2 41/11/2
f 25/12/4 21/13/4 38/13/4 35/12/4
f 22/14/5 28/15/5 37/15/5 39/14/5
f 12/3/4 16/4/4 32/4/4 20/3/4
f 15/1/5 10/2/5 18/2/5 30/1/5
f 14/7/4 12/3/4 20/3/4 29/7/4
f 10/2/5 13/5/5 26/5/5 18/2/5
f 21/13/6 25/12/6 18/2/6 26/5/6
f 27/16/6 21/13/6 26/5/6 19/6/6
f 28/15/6 22/14/6 29/7/6 20/3/6
f 22/14/6 27/16/6 19/6/6 29/7/6
f 25/12/6 23/10/6 30/1/6 18/2/6
f 23/10/6 17/9/6 31/8/6 30/1/6
f 24/11/6 28/15/6 20/3/6 32/4/6
f 17/9/6 24/11/6 32/4/6 31/8/6
f 27/16/3 22/14/3 39/14/3 36/16/3
f 21/13/3 27/16/3 36/16/3 38/13/3
f 28/15/5 24/11/5 41/11/5 37/15/5
f 23/10/4 25/12/4 35/12/4 40/10/4
f 8/4/7 4/3/7 45/3/7 49/4/7
f 42/2/8 47/1/8 55/1/8 50/2/8
f 2/2/9 7/1/9 47/1/9 42/2/9
f 4/3/7 6/7/7 46/7/7 45/3/7
f 5/5/9 2/2/9 42/2/9 43/5/9
f 1/8/3 8/4/3 49/4/3 48/8/3
f 7/1/3 1/8/3 48/8/3 47/1/3
f 6/7/2 3/6/2 44/6/2 46/7/2
f 3/6/2 5/5/2 43/5/2 44/6/2
f 51/5/10 50/2/10 55/1/10 56/8/10 57/4/10 53/3/10 54/7/10 52/6/10
f 45/3/11 46/7/11 54/7/11 53/3/11
f 43/5/8 42/2/8 50/2/8 51/5/8
f 48/8/3 49/4/3 57/4/3 56/8/3
f 47/1/3 48/8/3 56/8/3 55/1/3
f 46/7/2 44/6/2 52/6/2 54/7/2
f 44/6/2 43/5/2 51/5/2 52/6/2
f 49/4/11 45/3/11 53/3/11 57/4/11
usemtl Material.002
f 41/11/6 33/9/6 34/17/6 37/15/6
f 34/17/6 35/12/6 38/13/6 36/16/6
f 37/15/6 34/17/6 36/16/6 39/14/6
f 33/9/6 40/10/6 35/12/6 34/17/6
o Cylinder
v 0.173641 0.608441 -0.886129
v 0.232387 0.586547 -0.886129
v 0.171505 0.602710 -0.885527
v 0.230251 0.580817 -0.885527
v 0.169452 0.597200 -0.883743
v 0.228198 0.575307 -0.883743
v 0.167559 0.592122 -0.880847
v 0.226305 0.570229 -0.880847
v 0.165901 0.587671 -0.876948
v 0.224647 0.565778 -0.876948
v 0.164539 0.584018 -0.872198
v 0.223285 0.562125 -0.872198
v 0.163528 0.581303 -0.866779
v 0.222274 0.559410 -0.866779
v 0.162905 0.579632 -0.860898
v 0.221651 0.557739 -0.860898
v 0.162694 0.579068 -0.854783
v 0.221440 0.557174 -0.854783
v 0.162905 0.579632 -0.848668
v 0.221651 0.557739 -0.848668
v 0.163528 0.581303 -0.842787
v 0.222274 0.559410 -0.842787
v 0.164539 0.584018 -0.837368
v 0.223285 0.562125 -0.837368
v 0.165901 0.587671 -0.832618
v 0.224647 0.565778 -0.832618
v 0.167559 0.592122 -0.828719
v 0.226305 0.570229 -0.828719
v 0.169452 0.597200 -0.825823
v 0.228198 0.575307 -0.825823
v 0.171505 0.602710 -0.824039
v 0.230251 0.580817 -0.824039
v 0.173641 0.608441 -0.823436
v 0.232387 0.586547 -0.823436
v 0.175777 0.614171 -0.824039
v 0.234523 0.592278 -0.824039
v 0.177830 0.619681 -0.825823
v 0.236576 0.597788 -0.825823
v 0.179723 0.624759 -0.828719
v 0.238469 0.602866 -0.828719
v 0.181381 0.629210 -0.832618
v 0.240127 0.607317 -0.832618
v 0.182743 0.632863 -0.837368
v 0.241489 0.610970 -0.837368
v 0.183754 0.635578 -0.842787
v 0.242500 0.613685 -0.842787
v 0.184377 0.637249 -0.848668
v 0.243123 0.615356 -0.848668
v 0.184587 0.637814 -0.854783
v 0.243334 0.615920 -0.854783
v 0.184377 0.637249 -0.860898
v 0.243123 0.615356 -0.860898
v 0.183754 0.635578 -0.866779
v 0.242500 0.613685 -0.866779
v 0.182743 0.632863 -0.872198
v 0.241489 0.610970 -0.872198
v 0.181381 0.629210 -0.876948
v 0.240127 0.607317 -0.876948
v 0.179723 0.624759 -0.880847
v 0.238469 0.602866 -0.880847
v 0.177830 0.619681 -0.883743
v 0.236576 0.597788 -0.883743
v 0.175777 0.614171 -0.885527
v 0.234523 0.592278 -0.885527
vn -0.0342 -0.0918 -0.9952
vn -0.1014 -0.2720 -0.9569
vn -0.1646 -0.4417 -0.8819
vn -0.2215 -0.5945 -0.7730
vn -0.2699 -0.7243 -0.6344
vn -0.3080 -0.8264 -0.4714
vn -0.3342 -0.8967 -0.2903
vn -0.3475 -0.9325 -0.0980
vn -0.3475 -0.9325 0.0980
vn -0.3342 -0.8967 0.2903
vn -0.3080 -0.8264 0.4714
vn -0.2699 -0.7243 0.6344
vn -0.2215 -0.5945 0.7730
vn -0.1646 -0.4417 0.8819
vn -0.1014 -0.2720 0.9569
vn -0.0342 -0.0918 0.9952
vn 0.0342 0.0918 0.9952
vn 0.1014 0.2720 0.9569
vn 0.1646 0.4417 0.8819
vn 0.2215 0.5945 0.7730
vn 0.2699 0.7243 0.6344
vn 0.3080 0.8264 0.4714
vn 0.3342 0.8967 0.2903
vn 0.3475 0.9325 0.0980
vn 0.3475 0.9325 -0.0980
vn 0.3342 0.8967 -0.2903
vn 0.3080 0.8264 -0.4714
vn 0.2699 0.7243 -0.6344
vn 0.2215 0.5945 -0.7730
vn 0.1646 0.4417 -0.8819
vn 0.9370 -0.3492 -0.0000
vn 0.1014 0.2720 -0.9569
vn 0.0342 0.0918 -0.9952
vn -0.9370 0.3492 -0.0000
vt 1.000000 0.500000
vt 1.000000 1.000000
vt 0.968750 1.000000
vt 0.968750 0.500000
vt 0.937500 1.000000
vt 0.937500 0.500000
vt 0.906250 1.000000
vt 0.906250 0.500000
vt 0.875000 1.000000
vt 0.875000 0.500000
vt 0.843750 1.000000
vt 0.843750 0.500000
vt 0.812500 1.000000
vt 0.812500 0.500000
vt 0.781250 1.000000
vt 0.781250 0.500000
vt 0.750000 1.000000
vt 0.750000 0.500000
vt 0.718750 1.000000
vt 0.718750 0.500000
vt 0.687500 1.000000
vt 0.687500 0.500000
vt 0.656250 1.000000
vt 0.656250 0.500000
vt 0.625000 1.000000
vt 0.625000 0.500000
vt 0.593750 1.000000
vt 0.593750 0.500000
vt 0.562500 1.000000
vt 0.562500 0.500000
vt 0.531250 1.000000
vt 0.531250 0.500000
vt 0.500000 1.000000
vt 0.500000 0.500000
vt 0.468750 1.000000
vt 0.468750 0.500000
vt 0.437500 1.000000
vt 0.437500 0.500000
vt 0.406250 1.000000
vt 0.406250 0.500000
vt 0.375000 1.000000
vt 0.375000 0.500000
vt 0.343750 1.000000
vt 0.343750 0.500000
vt 0.312500 1.000000
vt 0.312500 0.500000
vt 0.281250 1.000000
vt 0.281250 0.500000
vt 0.250000 1.000000
vt 0.250000 0.500000
vt 0.218750 1.000000
vt 0.218750 0.500000
vt 0.187500 1.000000
vt 0.187500 0.500000
vt 0.156250 1.000000
vt 0.156250 0.500000
vt 0.125000 1.000000
vt 0.125000 0.500000
vt 0.093750 1.000000
vt 0.093750 0.500000
vt 0.062500 1.000000
vt 0.062500 0.500000
vt 0.296822 0.485388
vt 0.250000 0.490000
vt 0.203178 0.485388
vt 0.158156 0.471731
vt 0.116663 0.449553
vt 0.080294 0.419706
vt 0.050447 0.383337
vt 0.028269 0.341844
vt 0.014612 0.296822
vt 0.010000 0.250000
vt 0.014612 0.203178
vt 0.028269 0.158156
vt 0.050447 0.116663
vt 0.080294 0.080294
vt 0.116663 0.050447
vt 0.158156 0.028269
vt 0.203178 0.014612
vt 0.250000 0.010000
vt 0.296822 0.014612
vt 0.341844 0.028269
vt 0.383337 0.050447
vt 0.419706 0.080294
vt 0.449553 0.116663
vt 0.471731 0.158156
vt 0.485388 0.203178
vt 0.490000 0.250000
vt 0.485388 0.296822
vt 0.471731 0.341844
vt 0.449553 0.383337
vt 0.419706 0.419706
vt 0.383337 0.449553
vt 0.341844 0.471731
vt 0.031250 1.000000
vt 0.031250 0.500000
vt 0.000000 1.000000
vt 0.000000 0.500000
vt 0.750000 0.490000
vt 0.796822 0.485388
vt 0.841844 0.471731
vt 0.883337 0.449553
vt 0.919706 0.419706
vt 0.949553 0.383337
vt 0.971731 0.341844
vt 0.985388 0.296822
vt 0.990000 0.250000
vt 0.985388 0.203178
vt 0.971731 0.158156
vt 0.949553 0.116663
vt 0.919706 0.080294
vt 0.883337 0.050447
vt 0.841844 0.028269
vt 0.796822 0.014612
vt 0.750000 0.010000
vt 0.703178 0.014612
vt 0.658156 0.028269
vt 0.616663 0.050447
vt 0.580294 0.080294
vt 0.550447 0.116663
vt 0.528269 0.158156
vt 0.514612 0.203178
vt 0.510000 0.250000
vt 0.514612 0.296822
vt 0.528269 0.341844
vt 0.550447 0.383337
vt 0.580294 0.419706
vt 0.616663 0.449553
vt 0.658156 0.471731
vt 0.703178 0.485388
s 0
f 58/18/12 59/19/12 61/20/12 60/21/12
f 60/21/13 61/20/13 63/22/13 62/23/13
f 62/23/14 63/22/14 65/24/14 64/25/14
f 64/25/15 65/24/15 67/26/15 66/27/15
f 66/27/16 67/26/16 69/28/16 68/29/16
f 68/29/17 69/28/17 71/30/17 70/31/17
f 70/31/18 71/30/18 73/32/18 72/33/18
f 72/33/19 73/32/19 75/34/19 74/35/19
f 74/35/20 75/34/20 77/36/20 76/37/20
f 76/37/21 77/36/21 79/38/21 78/39/21
f 78/39/22 79/38/22 81/40/22 80/41/22
f 80/41/23 81/40/23 83/42/23 82/43/23
f 82/43/24 83/42/24 85/44/24 84/45/24
f 84/45/25 85/44/25 87/46/25 86/47/25
f 86/47/26 87/46/26 89/48/26 88/49/26
f 88/49/27 89/48/27 91/50/27 90/51/27
f 90/51/28 91/50/28 93/52/28 92/53/28
f 92/53/29 93/52/29 95/54/29 94/55/29
f 94/55/30 95/54/30 97/56/30 96/57/30
f 96/57/31 97/56/31 99/58/31 98/59/31
f 98/59/32 99/58/32 101/60/32 100/61/32
f 100/61/33 101/60/33 103/62/33 102/63/33
f 102/63/34 103/62/34 105/64/34 104/65/34
f 104/65/35 105/64/35 107/66/35 106/67/35
f 106/67/36 107/66/36 109/68/36 108/69/36
f 108/69/37 109/68/37 111/70/37 110/71/37
f 110/71/38 111/70/38 113/72/38 112/73/38
f 112/73/39 113/72/39 115/74/39 114/75/39
f 114/75/40 115/74/40 117/76/40 116/77/40
f 116/77/41 117/76/41 119/78/41 118/79/41
f 61/80/42 59/81/42 121/82/42 119/83/42 117/84/42 115/85/42 113/86/42 111/87/42 109/88/42 107/89/42 105/90/42 103/91/42 101/92/42 99/93/42 97/94/42 95/95/42 93/96/42 91/97/42 89/98/42 87/99/42 85/100/42 83/101/42 81/102/42 79/103/42 77/104/42 75/105/42 73/106/42 71/107/42 69/108/42 67/109/42 65/110/42 63/111/42
f 118/79/43 119/78/43 121/112/43 120/113/43
f 120/113/44 121/112/44 59/114/44 58/115/44
f 58/116/45 60/117/45 62/118/45 64/119/45 66/120/45 68/121/45 70/122/45 72/123/45 74/124/45 76/125/45 78/126/45 80/127/45 82/128/45 84/129/45 86/130/45 88/131/45 90/132/45 92/133/45 94/134/45 96/135/45 98/136/45 100/137/45 102/138/45 104/139/45 106/140/45 108/141/45 110/142/45 112/143/45 114/144/45 116/145/45 118/146/45 120/147/45
o Cylinder.001
v 0.173641 0.608441 -0.991357
v 0.232387 0.586547 -0.991357
v 0.171505 0.602710 -0.990755
v 0.230251 0.580817 -0.990755
v 0.169452 0.597200 -0.988971
v 0.228198 0.575307 -0.988971
v 0.167559 0.592122 -0.986075
v 0.226305 0.570229 -0.986075
v 0.165901 0.587671 -0.982176
v 0.224647 0.565778 -0.982176
v 0.164539 0.584018 -0.977426
v 0.223285 0.562125 -0.977426
v 0.163528 0.581303 -0.972007
v 0.222274 0.559410 -0.972007
v 0.162905 0.579632 -0.966126
v 0.221651 0.557739 -0.966126
v 0.162694 0.579068 -0.960011
v 0.221440 0.557174 -0.960011
v 0.162905 0.579632 -0.953896
v 0.221651 0.557739 -0.953896
v 0.163528 0.581303 -0.948015
v 0.222274 0.559410 -0.948015
v 0.164539 0.584018 -0.942596
v 0.223285 0.562125 -0.942596
v 0.165901 0.587671 -0.937846
v 0.224647 0.565778 -0.937846
v 0.167559 0.592122 -0.933947
v 0.226305 0.570229 -0.933947
v 0.169452 0.597200 -0.931051
v 0.228198 0.575307 -0.931051
v 0.171505 0.602710 -0.929267
v 0.230251 0.580817 -0.929267
v 0.173641 0.608441 -0.928664
v 0.232387 0.586547 -0.928664
v 0.175777 0.614171 -0.929267
v 0.234523 0.592278 -0.929267
v 0.177830 0.619681 -0.931051
v 0.236576 0.597788 -0.931051
v 0.179723 0.624759 -0.933947
v 0.238469 0.602866 -0.933947
v 0.181381 0.629210 -0.937846
v 0.240127 0.607317 -0.937846
v 0.182743 0.632863 -0.942596
v 0.241489 0.610970 -0.942596
v 0.183754 0.635578 -0.948015
v 0.242500 0.613685 -0.948015
v 0.184377 0.637249 -0.953896
v 0.243123 0.615356 -0.953896
v 0.184587 0.637814 -0.960011
v 0.243334 0.615920 -0.960011
v 0.184377 0.637249 -0.966126
v 0.243123 0.615356 -0.966126
v 0.183754 0.635578 -0.972007
v 0.242500 0.613685 -0.972007
v 0.182743 0.632863 -0.977426
v 0.241489 0.610970 -0.977426
v 0.181381 0.629210 -0.982176
v 0.240127 0.607317 -0.982176
v 0.179723 0.624759 -0.986075
v 0.238469 0.602866 -0.986075
v 0.177830 0.619681 -0.988971
v 0.236576 0.597788 -0.988971
v 0.175777 0.614171 -0.990755
v 0.234523 0.592278 -0.990755
vn -0.0342 -0.0918 -0.9952
vn -0.1014 -0.2720 -0.9569
vn -0.1646 -0.4417 -0.8819
vn -0.2215 -0.5945 -0.7730
vn -0.2699 -0.7243 -0.6344
vn -0.3080 -0.8264 -0.4714
vn -0.3342 -0.8967 -0.2903
vn -0.3475 -0.9325 -0.0980
vn -0.3475 -0.9325 0.0980
vn -0.3342 -0.8967 0.2903
vn -0.3080 -0.8264 0.4714
vn -0.2699 -0.7243 0.6344
vn -0.2215 -0.5945 0.7730
vn -0.1646 -0.4417 0.8819
vn -0.1014 -0.2720 0.9569
vn -0.0342 -0.0918 0.9952
vn 0.0342 0.0918 0.9952
vn 0.1014 0.2720 0.9569
vn 0.1646 0.4417 0.8819
vn 0.2215 0.5945 0.7730
vn 0.2699 0.7243 0.6344
vn 0.3080 0.8264 0.4714
vn 0.3342 0.8967 0.2903
vn 0.3475 0.9325 0.0980
vn 0.3475 0.9325 -0.0980
vn 0.3342 0.8967 -0.2903
vn 0.3080 0.8264 -0.4714
vn 0.2699 0.7243 -0.6344
vn 0.2215 0.5945 -0.7730
vn 0.1646 0.4417 -0.8819
vn 0.9370 -0.3492 -0.0000
vn 0.1014 0.2720 -0.9569
vn 0.0342 0.0918 -0.9952
vn -0.9370 0.3492 -0.0000
vt 1.000000 0.500000
vt 1.000000 1.000000
vt 0.968750 1.000000
vt 0.968750 0.500000
vt 0.937500 1.000000
vt 0.937500 0.500000
vt 0.906250 1.000000
vt 0.906250 0.500000
vt 0.875000 1.000000
vt 0.875000 0.500000
vt 0.843750 1.000000
vt 0.843750 0.500000
vt 0.812500 1.000000
vt 0.812500 0.500000
vt 0.781250 1.000000
vt 0.781250 0.500000
vt 0.750000 1.000000
vt 0.750000 0.500000
vt 0.718750 1.000000
vt 0.718750 0.500000
vt 0.687500 1.000000
vt 0.687500 0.500000
vt 0.656250 1.000000
vt 0.656250 0.500000
vt 0.625000 1.000000
vt 0.625000 0.500000
vt 0.593750 1.000000
vt 0.593750 0.500000
vt 0.562500 1.000000
vt 0.562500 0.500000
vt 0.531250 1.000000
vt 0.531250 0.500000
vt 0.500000 1.000000
vt 0.500000 0.500000
vt 0.468750 1.000000
vt 0.468750 0.500000
vt 0.437500 1.000000
vt 0.437500 0.500000
vt 0.406250 1.000000
vt 0.406250 0.500000
vt 0.375000 1.000000
vt 0.375000 0.500000
vt 0.343750 1.000000
vt 0.343750 0.500000
vt 0.312500 1.000000
vt 0.312500 0.500000
vt 0.281250 1.000000
vt 0.281250 0.500000
vt 0.250000 1.000000
vt 0.250000 0.500000
vt 0.218750 1.000000
vt 0.218750 0.500000
vt 0.187500 1.000000
vt 0.187500 0.500000
vt 0.156250 1.000000
vt 0.156250 0.500000
vt 0.125000 1.000000
vt 0.125000 0.500000
vt 0.093750 1.000000
vt 0.093750 0.500000
vt 0.062500 1.000000
vt 0.062500 0.500000
vt 0.296822 0.485388
vt 0.250000 0.490000
vt 0.203178 0.485388
vt 0.158156 0.471731
vt 0.116663 0.449553
vt 0.080294 0.419706
vt 0.050447 0.383337
vt 0.028269 0.341844
vt 0.014612 0.296822
vt 0.010000 0.250000
vt 0.014612 0.203178
vt 0.028269 0.158156
vt 0.050447 0.116663
vt 0.080294 0.080294
vt 0.116663 0.050447
vt 0.158156 0.028269
vt 0.203178 0.014612
vt 0.250000 0.010000
vt 0.296822 0.014612
vt 0.341844 0.028269
vt 0.383337 0.050447
vt 0.419706 0.080294
vt 0.449553 0.116663
vt 0.471731 0.158156
vt 0.485388 0.203178
vt 0.490000 0.250000
vt 0.485388 0.296822
vt 0.471731 0.341844
vt 0.449553 0.383337
vt 0.419706 0.419706
vt 0.383337 0.449553
vt 0.341844 0.471731
vt 0.031250 1.000000
vt 0.031250 0.500000
vt 0.000000 1.000000
vt 0.000000 0.500000
vt 0.750000 0.490000
vt 0.796822 0.485388
vt 0.841844 0.471731
vt 0.883337 0.449553
vt 0.919706 0.419706
vt 0.949553 0.383337
vt 0.971731 0.341844
vt 0.985388 0.296822
vt 0.990000 0.250000
vt 0.985388 0.203178
vt 0.971731 0.158156
vt 0.949553 0.116663
vt 0.919706 0.080294
vt 0.883337 0.050447
vt 0.841844 0.028269
vt 0.796822 0.014612
vt 0.750000 0.010000
vt 0.703178 0.014612
vt 0.658156 0.028269
vt 0.616663 0.050447
vt 0.580294 0.080294
vt 0.550447 0.116663
vt 0.528269 0.158156
vt 0.514612 0.203178
vt 0.510000 0.250000
vt 0.514612 0.296822
vt 0.528269 0.341844
vt 0.550447 0.383337
vt 0.580294 0.419706
vt 0.616663 0.449553
vt 0.658156 0.471731
vt 0.703178 0.485388
s 0
f 122/148/46 123/149/46 125/150/46 124/151/46
f 124/151/47 125/150/47 127/152/47 126/153/47
f 126/153/48 127/152/48 129/154/48 128/155/48
f 128/155/49 129/154/49 131/156/49 130/157/49
f 130/157/50 131/156/50 133/158/50 132/159/50
f 132/159/51 133/158/51 135/160/51 134/161/51
f 134/161/52 135/160/52 137/162/52 136/163/52
f 136/163/53 137/162/53 139/164/53 138/165/53
f 138/165/54 139/164/54 141/166/54 140/167/54
f 140/167/55 141/166/55 143/168/55 142/169/55
f 142/169/56 143/168/56 145/170/56 144/171/56
f 144/171/57 145/170/57 147/172/57 146/173/57
f 146/173/58 147/172/58 149/174/58 148/175/58
f 148/175/59 149/174/59 151/176/59 150/177/59
f 150/177/60 151/176/60 153/178/60 152/179/60
f 152/179/61 153/178/61 155/180/61 154/181/61
f 154/181/62 155/180/62 157/182/62 156/183/62
f 156/183/63 157/182/63 159/184/63 158/185/63
f 158/185/64 159/184/64 161/186/64 160/187/64
f 160/187/65 161/186/65 163/188/65 162/189/65
f 162/189/66 163/188/66 165/190/66 164/191/66
f 164/191/67 165/190/67 167/192/67 166/193/67
f 166/193/68 167/192/68 169/194/68 168/195/68
f 168/195/69 169/194/69 171/196/69 170/197/69
f 170/197/70 171/196/70 173/198/70 172/199/70
f 172/199/71 173/198/71 175/200/71 174/201/71
f 174/201/72 175/200/72 177/202/72 176/203/72
f 176/203/73 177/202/73 179/204/73 178/205/73
f 178/205/74 179/204/74 181/206/74 180/207/74
f 180/207/75 181/206/75 183/208/75 182/209/75
f 125/210/76 123/211/76 185/212/76 183/213/76 181/214/76 179/215/76 177/216/76 175/217/76 173/218/76 171/219/76 169/220/76 167/221/76 165/222/76 163/223/76 161/224/76 159/225/76 157/226/76 155/227/76 153/228/76 151/229/76 149/230/76 147/231/76 145/232/76 143/233/76 141/234/76 139/235/76 137/236/76 135/237/76 133/238/76 131/239/76 129/240/76 127/241/76
f 182/209/77 183/208/77 185/242/77 184/243/77
f 184/243/78 185/242/78 123/244/78 122/245/78
f 122/246/79 124/247/79 126/248/79 128/249/79 130/250/79 132/251/79 134/252/79 136/253/79 138/254/79 140/255/79 142/256/79 144/257/79 146/258/79 148/259/79 150/260/79 152/261/79 154/262/79 156/263/79 158/264/79 160/265/79 162/266/79 164/267/79 166/268/79 168/269/79 170/270/79 172/271/79 174/272/79 176/273/79 178/274/79 180/275/79 182/276/79 184/277/79
o Cylinder.002
v 0.173641 0.608441 -1.334271
v 0.232387 0.586547 -1.334271
v 0.171505 0.602710 -1.333668
v 0.230251 0.580817 -1.333668
v 0.169452 0.597200 -1.331885
v 0.228198 0.575307 -1.331885
v 0.167559 0.592122 -1.328988
v 0.226305 0.570229 -1.328988
v 0.165901 0.587671 -1.325089
v 0.224647 0.565778 -1.325089
v 0.164539 0.584018 -1.320339
v 0.223285 0.562125 -1.320339
v 0.163528 0.581303 -1.314920
v 0.222274 0.559410 -1.314920
v 0.162905 0.579632 -1.309040
v 0.221651 0.557739 -1.309040
v 0.162694 0.579068 -1.302924
v 0.221440 0.557174 -1.302924
v 0.162905 0.579632 -1.296809
v 0.221651 0.557739 -1.296809
v 0.163528 0.581303 -1.290928
v 0.222274 0.559410 -1.290928
v 0.164539 0.584018 -1.285509
v 0.223285 0.562125 -1.285509
v 0.165901 0.587671 -1.280759
v 0.224647 0.565778 -1.280759
v 0.167559 0.592122 -1.276860
v 0.226305 0.570229 -1.276860
v 0.169452 0.597200 -1.273964
v 0.228198 0.575307 -1.273964
v 0.171505 0.602710 -1.272180
v 0.230251 0.580817 -1.272180
v 0.173641 0.608441 -1.271578
v 0.232387 0.586547 -1.271578
v 0.175777 0.614171 -1.272180
v 0.234523 0.592278 -1.272180
v 0.177830 0.619681 -1.273964
v 0.236576 0.597788 -1.273964
v 0.179723 0.624759 -1.276860
v 0.238469 0.602866 -1.276860
v 0.181381 0.629210 -1.280759
v 0.240127 0.607317 -1.280759
v 0.182743 0.632863 -1.285509
v 0.241489 0.610970 -1.285509
v 0.183754 0.635578 -1.290928
v 0.242500 0.613685 -1.290928
v 0.184377 0.637249 -1.296809
v 0.243123 0.615356 -1.296809
v 0.184587 0.637814 -1.302924
v 0.243334 0.615920 -1.302924
v 0.184377 0.637249 -1.309040
v 0.243123 0.615356 -1.309040
v 0.183754 0.635578 -1.314920
v 0.242500 0.613685 -1.314920
v 0.182743 0.632863 -1.320339
v 0.241489 0.610970 -1.320339
v 0.181381 0.629210 -1.325089
v 0.240127 0.607317 -1.325089
v 0.179723 0.624759 -1.328988
v 0.238469 0.602866 -1.328988
v 0.177830 0.619681 -1.331885
v 0.236576 0.597788 -1.331885
v 0.175777 0.614171 -1.333668
v 0.234523 0.592278 -1.333668
vn -0.0342 -0.0918 -0.9952
vn -0.1014 -0.2720 -0.9569
vn -0.1646 -0.4417 -0.8819
vn -0.2215 -0.5945 -0.7730
vn -0.2699 -0.7243 -0.6344
vn -0.3080 -0.8264 -0.4714
vn -0.3342 -0.8967 -0.2903
vn -0.3475 -0.9325 -0.0980
vn -0.3475 -0.9325 0.0980
vn -0.3342 -0.8967 0.2903
vn -0.3080 -0.8264 0.4714
vn -0.2699 -0.7243 0.6344
vn -0.2215 -0.5945 0.7730
vn -0.1646 -0.4417 0.8819
vn -0.1014 -0.2720 0.9569
vn -0.0342 -0.0918 0.9952
vn 0.0342 0.0918 0.9952
vn 0.1014 0.2720 0.9569
vn 0.1646 0.4417 0.8819
vn 0.2215 0.5945 0.7730
vn 0.2699 0.7243 0.6344
vn 0.3080 0.8264 0.4714
vn 0.3342 0.8967 0.2903
vn 0.3475 0.9325 0.0980
vn 0.3475 0.9325 -0.0980
vn 0.3342 0.8967 -0.2903
vn 0.3080 0.8264 -0.4714
vn 0.2699 0.7243 -0.6344
vn 0.2215 0.5945 -0.7730
vn 0.1646 0.4417 -0.8819
vn 0.9370 -0.3492 -0.0000
vn 0.1014 0.2720 -0.9569
vn 0.0342 0.0918 -0.9952
vn -0.9370 0.3492 -0.0000
vt 1.000000 0.500000
vt 1.000000 1.000000
vt 0.968750 1.000000
vt 0.968750 0.500000
vt 0.937500 1.000000
vt 0.937500 0.500000
vt 0.906250 1.000000
vt 0.906250 0.500000
vt 0.875000 1.000000
vt 0.875000 0.500000
vt 0.843750 1.000000
vt 0.843750 0.500000
vt 0.812500 1.000000
vt 0.812500 0.500000
vt 0.781250 1.000000
vt 0.781250 0.500000
vt 0.750000 1.000000
vt 0.750000 0.500000
vt 0.718750 1.000000
vt 0.718750 0.500000
vt 0.687500 1.000000
vt 0.687500 0.500000
vt 0.656250 1.000000
vt 0.656250 0.500000
vt 0.625000 1.000000
vt 0.625000 0.500000
vt 0.593750 1.000000
vt 0.593750 0.500000
vt 0.562500 1.000000
vt 0.562500 0.500000
vt 0.531250 1.000000
vt 0.531250 0.500000
vt 0.500000 1.000000
vt 0.500000 0.500000
vt 0.468750 1.000000
vt 0.468750 0.500000
vt 0.437500 1.000000
vt 0.437500 0.500000
vt 0.406250 1.000000
vt 0.406250 0.500000
vt 0.375000 1.000000
vt 0.375000 0.500000
vt 0.343750 1.000000
vt 0.343750 0.500000
vt 0.312500 1.000000
vt 0.312500 0.500000
vt 0.281250 1.000000
vt 0.281250 0.500000
vt 0.250000 1.000000
vt 0.250000 0.500000
vt 0.218750 1.000000
vt 0.218750 0.500000
vt 0.187500 1.000000
vt 0.187500 0.500000
vt 0.156250 1.000000
vt 0.156250 0.500000
vt 0.125000 1.000000
vt 0.125000 0.500000
vt 0.093750 1.000000
vt 0.093750 0.500000
vt 0.062500 1.000000
vt 0.062500 0.500000
vt 0.296822 0.485388
vt 0.250000 0.490000
vt 0.203178 0.485388
vt 0.158156 0.471731
vt 0.116663 0.449553
vt 0.080294 0.419706
vt 0.050447 0.383337
vt 0.028269 0.341844
vt 0.014612 0.296822
vt 0.010000 0.250000
vt 0.014612 0.203178
vt 0.028269 0.158156
vt 0.050447 0.116663
vt 0.080294 0.080294
vt 0.116663 0.050447
vt 0.158156 0.028269
vt 0.203178 0.014612
vt 0.250000 0.010000
vt 0.296822 0.014612
vt 0.341844 0.028269
vt 0.383337 0.050447
vt 0.419706 0.080294
vt 0.449553 0.116663
vt 0.471731 0.158156
vt 0.485388 0.203178
vt 0.490000 0.250000
vt 0.485388 0.296822
vt 0.471731 0.341844
vt 0.449553 0.383337
vt 0.419706 0.419706
vt 0.383337 0.449553
vt 0.341844 0.471731
vt 0.031250 1.000000
vt 0.031250 0.500000
vt 0.000000 1.000000
vt 0.000000 0.500000
vt 0.750000 0.490000
vt 0.796822 0.485388
vt 0.841844 0.471731
vt 0.883337 0.449553
vt 0.919706 0.419706
vt 0.949553 0.383337
vt 0.971731 0.341844
vt 0.985388 0.296822
vt 0.990000 0.250000
vt 0.985388 0.203178
vt 0.971731 0.158156
vt 0.949553 0.116663
vt 0.919706 0.080294
vt 0.883337 0.050447
vt 0.841844 0.028269
vt 0.796822 0.014612
vt 0.750000 0.010000
vt 0.703178 0.014612
vt 0.658156 0.028269
vt 0.616663 0.050447
vt 0.580294 0.080294
vt 0.550447 0.116663
vt 0.528269 0.158156
vt 0.514612 0.203178
vt 0.510000 0.250000
vt 0.514612 0.296822
vt 0.528269 0.341844
vt 0.550447 0.383337
vt 0.580294 0.419706
vt 0.616663 0.449553
vt 0.658156 0.471731
vt 0.703178 0.485388
s 0
f 186/278/80 187/279/80 189/280/80 188/281/80
f 188/281/81 189/280/81 191/282/81 190/283/81
f 190/283/82 191/282/82 193/284/82 192/285/82
f 192/285/83 193/284/83 195/286/83 194/287/83
f 194/287/84 195/286/84 197/288/84 196/289/84
f 196/289/85 197/288/85 199/290/85 198/291/85
f 198/291/86 199/290/86 201/292/86 200/293/86
f 200/293/87 201/292/87 203/294/87 202/295/87
f 202/295/88 203/294/88 205/296/88 204/297/88
f 204/297/89 205/296/89 207/298/89 206/299/89
f 206/299/90 207/298/90 209/300/90 208/301/90
f 208/301/91 209/300/91 211/302/91 210/303/91
f 210/303/92 211/302/92 213/304/92 212/305/92
f 212/305/93 213/304/93 215/306/93 214/307/93
f 214/307/94 215/306/94 217/308/94 216/309/94
f 216/309/95 217/308/95 219/310/95 218/311/95
f 218/311/96 219/310/96 221/312/96 220/313/96
f 220/313/97 221/312/97 223/314/97 222/315/97
f 222/315/98 223/314/98 225/316/98 224/317/98
f 224/317/99 225/316/99 227/318/99 226/319/99
f 226/319/100 227/318/100 229/320/100 228/321/100
f 228/321/101 229/320/101 231/322/101 230/323/101
f 230/323/102 231/322/102 233/324/102 232/325/102
f 232/325/103 233/324/103 235/326/103 234/327/103
f 234/327/104 235/326/104 237/328/104 236/329/104
f 236/329/105 237/328/105 239/330/105 238/331/105
f 238/331/106 239/330/106 241/332/106 240/333/106
f 240/333/107 241/332/107 243/334/107 242/335/107
f 242/335/108 243/334/108 245/336/108 244/337/108
f 244/337/109 245/336/109 247/338/109 246/339/109
f 189/340/110 187/341/110 249/342/110 247/343/110 245/344/110 243/345/110 241/346/110 239/347/110 237/348/110 235/349/110 233/350/110 231/351/110 229/352/110 227/353/110 225/354/110 223/355/110 221/356/110 219/357/110 217/358/110 215/359/110 213/360/110 211/361/110 209/362/110 207/363/110 205/364/110 203/365/110 201/366/110 199/367/110 197/368/110 195/369/110 193/370/110 191/371/110
f 246/339/111 247/338/111 249/372/111 248/373/111
f 248/373/112 249/372/112 187/374/112 186/375/112
f 186/376/113 188/377/113 190/378/113 192/379/113 194/380/113 196/381/113 198/382/113 200/383/113 202/384/113 204/385/113 206/386/113 208/387/113 210/388/113 212/389/113 214/390/113 216/391/113 218/392/113 220/393/113 222/394/113 224/395/113 226/396/113 228/397/113 230/398/113 232/399/113 234/400/113 236/401/113 238/402/113 240/403/113 242/404/113 244/405/113 246/406/113 248/407/113
