# Blender 5.2.2 LTS
# www.blender.org
mtllib Monitor1.mtl
o Cube
v -0.341544 -0.053126 0.589769
v -0.341544 0.053126 0.589769
v -0.341544 -0.053126 -0.589769
v -0.341544 0.053126 -0.589769
v 0.341544 -0.053126 0.589769
v 0.341544 0.053126 0.589769
v 0.341544 -0.053126 -0.589769
v 0.341544 0.053126 -0.589769
v -0.341544 0.053126 0.000000
v 0.000000 0.053126 -0.589769
v 0.341544 0.053126 0.000000
v 0.000000 0.053126 0.589769
v -0.341544 0.053126 -0.294885
v 0.170772 0.053126 -0.589769
v 0.341544 0.053126 0.294885
v -0.170772 0.053126 0.589769
v -0.341544 0.053126 0.294885
v -0.170772 0.053126 -0.589769
v 0.341544 0.053126 -0.294885
v 0.170772 0.053126 0.589769
v 0.000000 0.053126 0.294885
v 0.000000 0.053126 -0.294885
v 0.170772 0.053126 0.000000
v -0.170772 0.053126 0.000000
v -0.170772 0.053126 -0.294885
v 0.170772 0.053126 -0.294885
v 0.170772 0.053126 0.294885
v -0.170772 0.053126 0.294885
v -0.341544 0.053126 -0.442327
v 0.256158 0.053126 -0.589769
v 0.341544 0.053126 0.442327
v -0.256158 0.053126 0.589769
v -0.341544 0.053126 0.147442
v -0.085386 0.053126 -0.589769
v 0.341544 0.053126 -0.147442
v 0.085386 0.053126 0.589769
v 0.000000 0.053126 0.442327
v 0.000000 0.053126 -0.147442
v 0.256158 0.053126 0.000000
v -0.085386 0.053126 0.000000
v -0.341544 0.053126 -0.147442
v 0.085386 0.053126 -0.589769
v 0.341544 0.053126 0.147442
v -0.085386 0.053126 0.589769
v -0.341544 0.053126 0.442327
v -0.256158 0.053126 -0.589769
v 0.341544 0.053126 -0.442327
v 0.256158 0.053126 0.589769
v 0.000000 0.053126 0.147442
v 0.000000 0.053126 -0.442327
v 0.085386 0.053126 0.000000
v -0.256158 0.053126 0.000000
v -0.170772 0.053126 -0.147442
v -0.170772 0.053126 -0.442327
v -0.085386 0.053126 -0.294885
v -0.256158 0.053126 -0.294885
v 0.170772 0.053126 -0.147442
v 0.170772 0.053126 -0.442327
v 0.256158 0.053126 -0.294885
v 0.085386 0.053126 -0.294885
v 0.170772 0.053126 0.442327
v 0.170772 0.053126 0.147442
v 0.256158 0.053126 0.294885
v 0.085386 0.053126 0.294885
v -0.170772 0.053126 0.442327
v -0.170772 0.053126 0.147442
v -0.085386 0.053126 0.294885
v -0.256158 0.053126 0.294885
v -0.256158 0.053126 0.147442
v -0.085386 0.053126 0.147442
v -0.085386 0.053126 0.442327
v 0.085386 0.053126 0.147442
v 0.256158 0.053126 0.147442
v 0.256158 0.053126 0.442327
v 0.085386 0.053126 -0.442327
v 0.256158 0.053126 -0.442327
v 0.256158 0.053126 -0.147442
v -0.256158 0.053126 -0.442327
v -0.085386 0.053126 -0.442327
v -0.085386 0.053126 -0.147442
v -0.256158 0.053126 -0.147442
v 0.085386 0.053126 -0.147442
v 0.085386 0.053126 0.442327
v -0.256158 0.053126 0.442327
v 0.000000 1.038115 -0.147442
v 0.228398 1.241645 -0.172464
v -0.085386 1.038115 0.000000
v 0.000000 1.038115 0.147442
v 0.085386 1.038115 0.000000
v -0.085386 1.038115 0.147442
v 0.085386 1.038115 0.147442
v -0.085386 1.038115 -0.147442
v 0.085386 1.038115 -0.147442
v 0.077797 1.187569 -0.172464
v 0.048941 1.267932 -0.025021
v 0.077797 1.187569 0.122421
v 0.106652 1.107207 -0.025021
v 0.048941 1.267932 0.122421
v 0.106652 1.107207 0.122421
v 0.048941 1.267932 -0.172464
v 0.106652 1.107207 -0.172464
v 0.214814 1.325944 -0.025021
v 0.228398 1.241645 0.122421
v 0.241982 1.157346 -0.025021
v 0.214814 1.325944 0.122421
v 0.241982 1.157346 0.122421
v 0.214814 1.325944 -0.172464
v 0.241982 1.157346 -0.172464
v 0.228398 1.241646 -1.355072
v 0.105860 2.002089 -0.025021
v 0.228398 1.241646 1.305030
v 0.350936 0.481202 -0.025021
v 0.105860 2.002089 1.305030
v 0.350936 0.481202 1.305030
v 0.105860 2.002089 -1.355072
v 0.350935 0.481202 -1.355072
v 0.480219 1.282224 -1.265371
v 0.357681 2.042667 -0.025021
v 0.480219 1.282224 1.305030
v 0.602756 0.521781 -0.025021
v 0.371951 1.954108 1.215329
v 0.588486 0.610339 1.215329
v 0.371951 1.954108 -1.265372
v 0.588486 0.610339 -1.265372
v 0.371951 1.954108 -0.025021
v 0.357681 2.042667 1.305030
v 0.480219 1.282224 1.215329
v 0.588486 0.610339 -0.025021
v 0.602756 0.521781 1.305030
v 0.357680 2.042667 -1.355072
v 0.480219 1.282224 -1.355072
v 0.602756 0.521781 -1.355072
v 0.397890 1.268958 -1.265371
v 0.397890 1.268958 -0.025021
v 0.289622 1.940842 -0.025021
v 0.397890 1.268958 1.215329
v 0.506157 0.597073 -0.025021
v 0.289622 1.940842 1.215329
v 0.506157 0.597073 1.215329
v 0.289622 1.940842 -1.265372
v 0.506157 0.597073 -1.265372
vn -1.0000 -0.0000 -0.0000
vn -0.0000 -0.0000 -1.0000
vn 1.0000 -0.0000 -0.0000
vn -0.0000 -0.0000 1.0000
vn -0.0000 -1.0000 -0.0000
vn -0.0000 1.0000 -0.0000
vn 0.9558 -0.2942 -0.0000
vn 0.0662 0.0941 0.9934
vn 0.1195 0.1698 0.9782
vn -0.0662 -0.0941 -0.9934
vn -0.3301 0.9439 -0.0000
vn -0.8633 0.5046 -0.0000
vn -0.1195 -0.1698 -0.9782
vn -0.9873 -0.1591 -0.0000
vn 0.3474 -0.9377 -0.0000
vn 0.1591 -0.9873 -0.0000
vn -0.1591 0.9873 -0.0000
vn 0.9873 0.1591 -0.0000
vt 0.375000 0.000000
vt 0.625000 0.000000
vt 0.625000 0.031250
vt 0.625000 0.062500
vt 0.625000 0.093750
vt 0.625000 0.125000
vt 0.625000 0.156250
vt 0.625000 0.187500
vt 0.625000 0.218750
vt 0.625000 0.250000
vt 0.375000 0.250000
vt 0.625000 0.281250
vt 0.625000 0.312500
vt 0.625000 0.343750
vt 0.625000 0.375000
vt 0.625000 0.406250
vt 0.625000 0.437500
vt 0.625000 0.468750
vt 0.625000 0.500000
vt 0.375000 0.500000
vt 0.625000 0.531250
vt 0.625000 0.562500
vt 0.625000 0.593750
vt 0.625000 0.625000
vt 0.625000 0.656250
vt 0.625000 0.687500
vt 0.625000 0.718750
vt 0.625000 0.750000
vt 0.375000 0.750000
vt 0.625000 0.781250
vt 0.625000 0.812500
vt 0.625000 0.843750
vt 0.625000 0.875000
vt 0.625000 0.906250
vt 0.625000 0.937500
vt 0.625000 0.968750
vt 0.625000 1.000000
vt 0.375000 1.000000
vt 0.125000 0.500000
vt 0.125000 0.750000
vt 0.843750 0.718750
vt 0.875000 0.718750
vt 0.875000 0.750000
vt 0.843750 0.750000
vt 0.718750 0.718750
vt 0.750000 0.718750
vt 0.750000 0.750000
vt 0.718750 0.750000
vt 0.718750 0.656250
vt 0.718750 0.625000
vt 0.843750 0.593750
vt 0.875000 0.593750
vt 0.875000 0.625000
vt 0.843750 0.625000
vt 0.781250 0.593750
vt 0.812500 0.593750
vt 0.812500 0.625000
vt 0.781250 0.625000
vt 0.781250 0.531250
vt 0.812500 0.531250
vt 0.812500 0.562500
vt 0.781250 0.562500
vt 0.843750 0.531250
vt 0.875000 0.531250
vt 0.875000 0.562500
vt 0.843750 0.562500
vt 0.656250 0.593750
vt 0.687500 0.593750
vt 0.687500 0.625000
vt 0.656250 0.625000
vt 0.656250 0.531250
vt 0.687500 0.531250
vt 0.687500 0.562500
vt 0.656250 0.562500
vt 0.718750 0.531250
vt 0.750000 0.531250
vt 0.750000 0.562500
vt 0.718750 0.562500
vt 0.656250 0.718750
vt 0.687500 0.718750
vt 0.687500 0.750000
vt 0.656250 0.750000
vt 0.656250 0.656250
vt 0.687500 0.656250
vt 0.687500 0.687500
vt 0.656250 0.687500
vt 0.750000 0.656250
vt 0.750000 0.687500
vt 0.718750 0.687500
vt 0.781250 0.718750
vt 0.812500 0.718750
vt 0.812500 0.750000
vt 0.781250 0.750000
vt 0.781250 0.656250
vt 0.812500 0.656250
vt 0.812500 0.687500
vt 0.781250 0.687500
vt 0.843750 0.656250
vt 0.875000 0.656250
vt 0.875000 0.687500
vt 0.843750 0.687500
vt 0.750000 0.593750
vt 0.687500 0.500000
vt 0.718750 0.500000
vt 0.750000 0.500000
vt 0.656250 0.500000
vt 0.812500 0.500000
vt 0.843750 0.500000
vt 0.875000 0.500000
vt 0.781250 0.500000
vt 0.718750 0.593750
vt 0.750000 0.595858
vt 0.777611 0.595858
vt 0.722389 0.595858
vt 0.777611 0.625000
vt 0.777611 0.654142
vt 0.722389 0.654142
vt 0.722389 0.625000
vt 0.750000 0.654142
vt 0.750000 0.625000
s 0
usemtl Material.001
f 1/1/1 2/2/1 45/3/1 17/4/1 33/5/1 9/6/1 41/7/1 13/8/1 29/9/1 4/10/1 3/11/1
f 3/11/2 4/10/2 46/12/2 18/13/2 34/14/2 10/15/2 42/16/2 14/17/2 30/18/2 8/19/2 7/20/2
f 7/20/3 8/19/3 47/21/3 19/22/3 35/23/3 11/24/3 43/25/3 15/26/3 31/27/3 6/28/3 5/29/3
f 5/29/4 6/28/4 48/30/4 20/31/4 36/32/4 12/33/4 44/34/4 16/35/4 32/36/4 2/37/4 1/38/4
f 3/39/5 7/20/5 5/29/5 1/40/5
f 84/41/6 45/42/6 2/43/6 32/44/6
f 83/45/6 37/46/6 12/47/6 36/48/6
f 72/49/3 51/50/3 89/50/3 91/49/3
f 81/51/6 41/52/6 9/53/6 52/54/6
f 80/55/6 53/56/6 24/57/6 40/58/6
f 79/59/6 54/60/6 25/61/6 55/62/6
f 78/63/6 29/64/6 13/65/6 56/66/6
f 77/67/6 57/68/6 23/69/6 39/70/6
f 76/71/6 58/72/6 26/73/6 59/74/6
f 75/75/6 50/76/6 22/77/6 60/78/6
f 74/79/6 61/80/6 20/81/6 48/82/6
f 73/83/6 62/84/6 27/85/6 63/86/6
f 72/49/6 49/87/6 21/88/6 64/89/6
f 71/90/6 65/91/6 16/92/6 44/93/6
f 70/94/6 66/95/6 28/96/6 67/97/6
f 69/98/6 33/99/6 17/100/6 68/101/6
f 66/95/6 69/98/6 68/101/6 28/96/6
f 24/57/6 52/54/6 69/98/6 66/95/6
f 52/54/6 9/53/6 33/99/6 69/98/6
f 49/87/6 70/94/6 67/97/6 21/88/6
f 38/102/2 80/55/2 92/55/2 85/102/2
f 40/58/6 24/57/6 66/95/6 70/94/6
f 37/46/6 71/90/6 44/93/6 12/47/6
f 21/88/6 67/97/6 71/90/6 37/46/6
f 67/97/6 28/96/6 65/91/6 71/90/6
f 62/84/6 72/49/6 64/89/6 27/85/6
f 23/69/6 51/50/6 72/49/6 62/84/6
f 49/87/4 72/49/4 91/49/4 88/87/4
f 43/25/6 73/83/6 63/86/6 15/26/6
f 11/24/6 39/70/6 73/83/6 43/25/6
f 39/70/6 23/69/6 62/84/6 73/83/6
f 31/27/6 74/79/6 48/82/6 6/28/6
f 15/26/6 63/86/6 74/79/6 31/27/6
f 63/86/6 27/85/6 61/80/6 74/79/6
f 58/72/6 75/75/6 60/78/6 26/73/6
f 14/103/6 42/104/6 75/75/6 58/72/6
f 42/104/6 10/105/6 50/76/6 75/75/6
f 47/21/6 76/71/6 59/74/6 19/22/6
f 8/19/6 30/106/6 76/71/6 47/21/6
f 30/106/6 14/103/6 58/72/6 76/71/6
f 35/23/6 77/67/6 39/70/6 11/24/6
f 19/22/6 59/74/6 77/67/6 35/23/6
f 59/74/6 26/73/6 57/68/6 77/67/6
f 54/60/6 78/63/6 56/66/6 25/61/6
f 18/107/6 46/108/6 78/63/6 54/60/6
f 46/108/6 4/109/6 29/64/6 78/63/6
f 50/76/6 79/59/6 55/62/6 22/77/6
f 10/105/6 34/110/6 79/59/6 50/76/6
f 34/110/6 18/107/6 54/60/6 79/59/6
f 70/94/4 49/87/4 88/87/4 90/94/4
f 22/77/6 55/62/6 80/55/6 38/102/6
f 55/62/6 25/61/6 53/56/6 80/55/6
f 53/56/6 81/51/6 52/54/6 24/57/6
f 25/61/6 56/66/6 81/51/6 53/56/6
f 56/66/6 13/65/6 41/52/6 81/51/6
f 57/68/6 82/111/6 51/50/6 23/69/6
f 26/73/6 60/78/6 82/111/6 57/68/6
f 60/78/6 22/77/6 38/102/6 82/111/6
f 61/80/6 83/45/6 36/48/6 20/81/6
f 27/85/6 64/89/6 83/45/6 61/80/6
f 64/89/6 21/88/6 37/46/6 83/45/6
f 65/91/6 84/41/6 32/44/6 16/92/6
f 28/96/6 68/101/6 84/41/6 65/91/6
f 68/101/6 17/100/6 45/42/6 84/41/6
f 89/50/7 93/111/7 101/111/7 97/50/7
f 90/94/8 88/87/8 96/87/8 98/94/8
f 88/87/9 91/49/9 99/49/9 96/87/9
f 85/102/10 92/55/10 100/55/10 94/102/10
f 82/111/2 38/102/2 85/102/2 93/111/2
f 80/55/1 40/58/1 87/58/1 92/55/1
f 40/58/1 70/94/1 90/94/1 87/58/1
f 51/50/3 82/111/3 93/111/3 89/50/3
f 96/87/4 99/49/4 106/49/4 103/87/4
f 94/102/2 100/55/2 107/55/2 86/102/2
f 101/111/2 94/102/2 86/102/2 108/111/2
f 95/58/11 98/94/11 105/94/11 102/58/11
f 92/55/12 87/58/12 95/58/12 100/55/12
f 91/49/7 89/50/7 97/50/7 99/49/7
f 87/58/12 90/94/12 98/94/12 95/58/12
f 93/111/13 85/102/13 94/102/13 101/111/13
f 107/55/14 102/58/14 110/58/14 115/55/14
f 104/50/14 108/111/14 116/111/14 112/50/14
f 105/94/14 103/87/14 111/87/14 113/94/14
f 103/87/14 106/49/14 114/49/14 111/87/14
f 98/94/4 96/87/4 103/87/4 105/94/4
f 97/50/15 101/111/15 108/111/15 104/50/15
f 100/55/11 95/58/11 102/58/11 107/55/11
f 99/49/15 97/50/15 104/50/15 106/49/15
f 113/94/4 111/87/4 119/87/4 126/94/4
f 111/87/4 114/49/4 129/49/4 119/87/4
f 109/102/2 115/55/2 130/55/2 131/102/2
f 116/111/2 109/102/2 131/102/2 132/111/2
f 106/49/14 104/50/14 112/50/14 114/49/14
f 102/58/14 105/94/14 113/94/14 110/58/14
f 108/111/14 86/102/14 109/102/14 116/111/14
f 86/102/14 107/55/14 115/55/14 109/102/14
f 117/112/4 123/113/4 140/113/4 133/112/4
f 124/114/4 117/112/4 133/112/4 141/114/4
f 125/115/16 121/116/16 138/116/16 135/115/16
f 122/117/17 128/118/17 137/118/17 139/117/17
f 112/50/16 116/111/16 132/111/16 120/50/16
f 115/55/17 110/58/17 118/58/17 130/55/17
f 114/49/16 112/50/16 120/50/16 129/49/16
f 110/58/17 113/94/17 126/94/17 118/58/17
f 121/116/18 125/115/18 118/58/18 126/94/18
f 127/119/18 121/116/18 126/94/18 119/87/18
f 128/118/18 122/117/18 129/49/18 120/50/18
f 122/117/18 127/119/18 119/87/18 129/49/18
f 125/115/18 123/113/18 130/55/18 118/58/18
f 123/113/18 117/112/18 131/102/18 130/55/18
f 124/114/18 128/118/18 120/50/18 132/111/18
f 117/112/18 124/114/18 132/111/18 131/102/18
f 127/119/2 122/117/2 139/117/2 136/119/2
f 121/116/2 127/119/2 136/119/2 138/116/2
f 128/118/17 124/114/17 141/114/17 137/118/17
f 123/113/16 125/115/16 135/115/16 140/113/16
usemtl Material.002
f 141/114/18 133/112/18 134/120/18 137/118/18
f 134/120/18 135/115/18 138/116/18 136/119/18
f 137/118/18 134/120/18 136/119/18 139/117/18
f 133/112/18 140/113/18 135/115/18 134/120/18
